<svg id="BoomBoxBackground" xmlns="http://www.w3.org/2000/svg" xmlns:xlink="http://www.w3.org/1999/xlink" viewBox="0 0 567.24 316.06"><defs><style>.cls-1{fill:#932068;}.cls-2{fill:url(#linear-gradient);}.cls-3{fill:#c4769d;}.cls-4{fill:#df1c49;}.cls-20,.cls-5{fill:#e06387;}.cls-17,.cls-18,.cls-19,.cls-5{stroke:#c4769d;}.cls-16,.cls-17,.cls-18,.cls-19,.cls-21,.cls-22,.cls-5{stroke-miterlimit:10;}.cls-6{fill:#781b56;}.cls-7{fill:#d87d98;}.cls-8{fill:#cc729f;}.cls-9{fill:#bc6d9a;}.cls-10{fill:#ca77a8;}.cls-11{fill:#b36c99;}.cls-12{fill:#cc7eb5;}.cls-13{fill:#c07bad;}.cls-14{fill:#e7afc6;}.cls-15{fill:#fff;}.cls-16,.cls-19,.cls-21,.cls-22{fill:none;}.cls-16{stroke:#e06387;}.cls-16,.cls-19,.cls-21{stroke-width:5px;}.cls-17{fill:url(#radial-gradient);}.cls-18{fill:url(#radial-gradient-2);}.cls-19{stroke-linecap:round;}.cls-21{stroke:#781b56;}.cls-22{stroke:#932068;}</style><linearGradient id="linear-gradient" y1="175.93" x2="567.24" y2="175.93" gradientUnits="userSpaceOnUse"><stop offset="0" stop-color="#d2147e"/><stop offset="1" stop-color="#df4f67"/></linearGradient><radialGradient id="radial-gradient" cx="757.88" cy="209.41" r="55.2" gradientTransform="translate(-647.38 -31.51) scale(1 1.01)" gradientUnits="userSpaceOnUse"><stop offset="0" stop-color="#de3766"/><stop offset="0.17" stop-color="#932068"/><stop offset="0.36" stop-color="#ab1f67"/><stop offset="0.4" stop-color="#d3147d"/><stop offset="0.72" stop-color="#de3766"/><stop offset="0.73" stop-color="#d3147d"/><stop offset="0.78" stop-color="#ab1f67"/><stop offset="0.82" stop-color="#de3766"/><stop offset="0.87" stop-color="#d3147d"/><stop offset="1" stop-color="#de3766"/></radialGradient><radialGradient id="radial-gradient-2" cx="1105.46" cy="209.41" r="55.2" xlink:href="#radial-gradient"/></defs><path id="BoomBoxHandle" class="cls-1" d="M750.54,73.75V59.19l4.74-9.49h366.77l6,10v14h8.25V38.39a8.42,8.42,0,0,0-8.42-8.42H748.44a5.28,5.28,0,0,0-5.28,5.27V73.75Z" transform="translate(-647.38 -29.97)"/><rect class="cls-2" y="35.81" width="567.24" height="280.25" rx="14.68"/><path class="cls-3" d="M842.83,94.35V317.67a.64.64,0,0,0,.66.62h177.88a.65.65,0,0,0,.67-.62V94.35a.65.65,0,0,0-.67-.62H843.49A.64.64,0,0,0,842.83,94.35Zm160.23,99.19H862.46a.65.65,0,0,1-.67-.63V113.22a.65.65,0,0,1,.67-.62h140.6a.64.64,0,0,1,.66.62v79.69A.64.64,0,0,1,1003.06,193.54Z" transform="translate(-647.38 -29.97)"/><rect id="OutterCassette" class="cls-4" x="233.51" y="173.01" width="105.51" height="59.26"/><rect id="InnerCassette" class="cls-5" x="240.71" y="179.86" width="90.78" height="45.56"/><rect id="GoBackSong" class="cls-6" x="210.22" y="240.22" width="28.78" height="12.68"/><rect id="Rewind" class="cls-6" x="240.71" y="240.22" width="28.78" height="12.68"/><rect id="Pause_Play" data-name="Pause/Play" class="cls-6" x="271.16" y="240.22" width="28.78" height="12.68"/><rect id="FastForward" class="cls-6" x="301.84" y="240.22" width="28.78" height="12.68"/><rect id="SkipSong" class="cls-6" x="332.52" y="240.22" width="28.78" height="12.68"/><rect id="DetailCenterBase" class="cls-6" x="211.16" y="264.89" width="147.3" height="4.22"/><path id="LeftSpeakerBoarder" class="cls-1" d="M757.85,141.45a67.88,67.88,0,1,0,67.88,67.88A67.88,67.88,0,0,0,757.85,141.45Zm0,123.28a55.41,55.41,0,1,1,55.4-55.4A55.4,55.4,0,0,1,757.85,264.73Z" transform="translate(-647.38 -29.97)"/><path id="RightSpeakerBorder" class="cls-1" d="M1105.46,141.45a67.88,67.88,0,1,0,67.88,67.88A67.88,67.88,0,0,0,1105.46,141.45Zm0,123.28a55.41,55.41,0,1,1,55.41-55.4A55.4,55.4,0,0,1,1105.46,264.73Z" transform="translate(-647.38 -29.97)"/><polygon id="Play" class="cls-7" points="287.75 243.71 287.75 249.63 293.02 246.67 287.75 243.71"/><g id="Pause"><rect class="cls-7" x="282.01" y="243.71" width="1.24" height="5.92"/><rect class="cls-7" x="279.21" y="243.71" width="1.24" height="5.92"/></g><g id="FastForwardSymbol"><polygon id="Play-2" data-name="Play" class="cls-7" points="310.96 243.76 310.96 249.68 316.23 246.72 310.96 243.76"/><polygon id="Play-3" data-name="Play" class="cls-7" points="316.23 243.66 316.23 249.57 321.5 246.62 316.23 243.66"/></g><g id="RewindSymbol"><polygon id="Play-4" data-name="Play" class="cls-7" points="259.56 243.66 259.56 249.57 254.29 246.62 259.56 243.66"/><polygon id="Play-5" data-name="Play" class="cls-7" points="254.29 243.55 254.29 249.47 249.02 246.51 254.29 243.55"/></g><g id="SkipSongSymbol"><g id="FastForwardSymbol-2" data-name="FastForwardSymbol"><polygon id="Play-6" data-name="Play" class="cls-7" points="341.26 243.82 341.26 249.74 346.53 246.78 341.26 243.82"/><polygon id="Play-7" data-name="Play" class="cls-7" points="346.53 243.71 346.53 249.63 351.8 246.67 346.53 243.71"/></g><rect class="cls-7" x="351.73" y="243.71" width="0.82" height="6.03"/></g><g id="SkipSongSymbol-2" data-name="SkipSongSymbol"><g id="FastForwardSymbol-3" data-name="FastForwardSymbol"><polygon id="Play-8" data-name="Play" class="cls-7" points="230.25 243.87 230.25 249.79 224.98 246.83 230.25 243.87"/><polygon id="Play-9" data-name="Play" class="cls-7" points="224.98 243.76 224.98 249.68 219.71 246.72 224.98 243.76"/></g><rect class="cls-7" x="866.34" y="273.73" width="0.82" height="6.03" transform="translate(1086.12 523.52) rotate(-180)"/></g><g id="InnerCassette-2" data-name="InnerCassette"><circle class="cls-8" cx="264.11" cy="203.34" r="17.39"/><g id="LeftMoving"><circle class="cls-8" cx="264.11" cy="203" r="17.39"/><circle class="cls-9" cx="264.11" cy="203" r="15.74"/><circle class="cls-10" cx="264.11" cy="203" r="14.95"/><circle class="cls-11" cx="264.11" cy="203" r="14.34"/><circle class="cls-12" cx="264.11" cy="203" r="13.61"/></g><g id="Moving_Cassette" data-name="Moving Cassette"><circle class="cls-8" cx="308.08" cy="203.34" r="17.39"/><circle class="cls-9" cx="308.08" cy="203.34" r="15.74"/><circle class="cls-10" cx="308.08" cy="203.34" r="14.95"/><circle class="cls-11" cx="308.08" cy="203.34" r="14.34"/><circle class="cls-12" cx="308.08" cy="203.34" r="13.61"/><circle class="cls-13" cx="308.08" cy="203.34" r="12.41"/></g><circle class="cls-14" cx="264.11" cy="203.34" r="6.44"/><circle class="cls-14" cx="308.08" cy="203.34" r="6.44"/><circle class="cls-15" cx="308.08" cy="203.34" r="5.5"/><circle class="cls-15" cx="264.11" cy="203.34" r="5.5"/></g><rect id="CenterPieceOutline" class="cls-16" x="203.43" y="70.16" width="164.23" height="211.06" rx="4.83"/><ellipse class="cls-17" cx="110.5" cy="179.36" rx="55.37" ry="55.41"/><ellipse class="cls-18" cx="458.08" cy="179.36" rx="55.37" ry="55.41"/><line class="cls-19" x1="51.17" y1="70.16" x2="169.76" y2="70.16"/><line class="cls-19" x1="47.14" y1="83.61" x2="174.53" y2="83.61"/><line class="cls-19" x1="42.59" y1="97.05" x2="179.22" y2="97.05"/><line class="cls-19" x1="50.74" y1="288.56" x2="169.32" y2="288.56"/><line class="cls-19" x1="46.7" y1="275.11" x2="174.09" y2="275.11"/><line class="cls-19" x1="42.15" y1="261.66" x2="178.78" y2="261.66"/><line class="cls-19" x1="401.32" y1="66.58" x2="519.91" y2="66.58"/><line class="cls-19" x1="397.29" y1="80.03" x2="524.68" y2="80.03"/><line class="cls-19" x1="392.74" y1="93.48" x2="529.37" y2="93.48"/><line class="cls-19" x1="401.32" y1="287.99" x2="519.91" y2="287.99"/><line class="cls-19" x1="397.29" y1="274.54" x2="524.68" y2="274.54"/><line class="cls-19" x1="392.74" y1="261.09" x2="529.37" y2="261.09"/><rect id="Column1Item1" class="cls-20" x="229.17" y="146.55" width="17.39" height="9.72"/><rect id="Column1Item2" class="cls-20" x="229.17" y="133.14" width="17.39" height="9.72"/><rect id="Column2Item1" class="cls-20" x="254.28" y="146.55" width="17.39" height="9.72"/><rect id="Column3Item2" class="cls-20" x="279.13" y="133.14" width="17.39" height="9.72"/><rect id="Column3Item3" class="cls-20" x="279.13" y="119.73" width="17.39" height="9.72"/><rect id="Column3Item1" class="cls-20" x="279.13" y="146.55" width="17.39" height="9.72"/><rect id="Column4Item1" class="cls-20" x="303.7" y="146.55" width="17.39" height="9.72"/><rect id="Column5Item1" class="cls-20" x="327.53" y="146.55" width="17.39" height="9.72"/><rect id="Column4Item2" class="cls-20" x="303.7" y="133.14" width="17.39" height="9.72"/><rect id="CenterPieceOutline-2" data-name="CenterPieceOutline" class="cls-21" x="8.36" y="43.79" width="551.13" height="264.94" rx="14.86"/><rect class="cls-22" x="214.41" y="83.25" width="141.93" height="79.69"/></svg>