<svg xmlns="http://www.w3.org/2000/svg" xmlns:xlink="http://www.w3.org/1999/xlink" viewBox="0 0 600 350"><defs><style>.cls-1{fill:#231f20;}.cls-2{fill:#d87d98;}.cls-3{fill:#df1c49;}.cls-38,.cls-4{fill:#e06387;}.cls-4{stroke:#c4769d;}.cls-19,.cls-4{stroke-miterlimit:10;}.cls-5{fill:#7a5a63;}.cls-6{fill:#b61d8d;}.cls-7{fill:url(#radial-gradient);}.cls-8{fill:url(#radial-gradient-2);}.cls-9{fill:#781b56;}.cls-10{fill:#efdce3;}.cls-11{fill:#e7afc6;}.cls-12{fill:#cc729f;}.cls-13{fill:#bc6d9a;}.cls-14{fill:#ca77a8;}.cls-15{fill:#b36c99;}.cls-16{fill:#cc7eb5;}.cls-17{fill:#c07bad;}.cls-18{fill:#fff;}.cls-19{fill:none;stroke:#e06387;stroke-width:2px;}.cls-20{fill:url(#radial-gradient-3);}.cls-21{fill:url(#radial-gradient-4);}.cls-22{fill:url(#radial-gradient-5);}.cls-23{fill:url(#radial-gradient-6);}.cls-24{fill:url(#radial-gradient-7);}.cls-25{fill:#932068;}.cls-26{fill:url(#radial-gradient-8);}.cls-27{fill:#20181b;}.cls-28{fill:#232122;}.cls-29{fill:url(#radial-gradient-9);}.cls-30{fill:url(#radial-gradient-10);}.cls-31{fill:url(#radial-gradient-11);}.cls-32{fill:url(#radial-gradient-12);}.cls-33{fill:url(#radial-gradient-13);}.cls-34{fill:url(#radial-gradient-14);}.cls-35{fill:url(#radial-gradient-15);}.cls-36{fill:url(#radial-gradient-16);}.cls-37{fill:url(#radial-gradient-17);}</style><radialGradient id="radial-gradient" cx="130.99" cy="222.15" r="73" gradientUnits="userSpaceOnUse"><stop offset="0" stop-color="#fff"/><stop offset="0.27" stop-color="#fac9c1"/><stop offset="0.78" stop-color="#f26750"/><stop offset="1" stop-color="#ef4023"/></radialGradient><radialGradient id="radial-gradient-2" cx="481.46" cy="222.15" r="73" xlink:href="#radial-gradient"/><radialGradient id="radial-gradient-3" cx="355.25" cy="61.81" r="14.06" gradientUnits="userSpaceOnUse"><stop offset="0" stop-color="#fff"/><stop offset="0.06" stop-color="#fdf1f4"/><stop offset="0.53" stop-color="#ec8ea8"/><stop offset="0.85" stop-color="#e24f79"/><stop offset="1" stop-color="#de3766"/></radialGradient><radialGradient id="radial-gradient-4" cx="407.95" cy="61.06" r="14.69" gradientUnits="userSpaceOnUse"><stop offset="0" stop-color="#fff"/><stop offset="0.37" stop-color="#f1abbf"/><stop offset="0.67" stop-color="#e76c8f"/><stop offset="0.89" stop-color="#e04671"/><stop offset="1" stop-color="#de3766"/></radialGradient><radialGradient id="radial-gradient-5" cx="302.49" cy="61.81" r="14.06" xlink:href="#radial-gradient-3"/><radialGradient id="radial-gradient-6" cx="248.46" cy="61.81" r="14.06" xlink:href="#radial-gradient-3"/><radialGradient id="radial-gradient-7" cx="194.43" cy="61.81" r="14.06" xlink:href="#radial-gradient-3"/><radialGradient id="radial-gradient-8" cx="478.49" cy="151.69" r="6.13" gradientUnits="userSpaceOnUse"><stop offset="0" stop-color="#fff"/><stop offset="0.08" stop-color="#fbe4ea"/><stop offset="0.25" stop-color="#f2b0c2"/><stop offset="0.42" stop-color="#eb84a1"/><stop offset="0.58" stop-color="#e56387"/><stop offset="0.74" stop-color="#e14b75"/><stop offset="0.88" stop-color="#df3c6a"/><stop offset="1" stop-color="#de3766"/></radialGradient><radialGradient id="radial-gradient-9" cx="414.3" cy="201.63" r="6.13" xlink:href="#radial-gradient-8"/><radialGradient id="radial-gradient-10" cx="435.82" cy="268.87" r="6.51" xlink:href="#radial-gradient-8"/><radialGradient id="radial-gradient-11" cx="522.88" cy="268.87" r="6.51" xlink:href="#radial-gradient-8"/><radialGradient id="radial-gradient-12" cx="543.37" cy="201.27" r="6.13" xlink:href="#radial-gradient-8"/><radialGradient id="radial-gradient-13" cx="128.02" cy="151.42" r="6.13" xlink:href="#radial-gradient-8"/><radialGradient id="radial-gradient-14" cx="63.83" cy="201.37" r="6.13" xlink:href="#radial-gradient-8"/><radialGradient id="radial-gradient-15" cx="85.35" cy="268.61" r="6.51" xlink:href="#radial-gradient-8"/><radialGradient id="radial-gradient-16" cx="172.41" cy="268.61" r="6.51" xlink:href="#radial-gradient-8"/><radialGradient id="radial-gradient-17" cx="192.89" cy="201.01" r="6.13" xlink:href="#radial-gradient-8"/></defs><title>MAIN BOOM BOX</title><g id="BoomBoxBackground"><rect class="cls-1" x="41.77" y="43.79" width="525.19" height="302.24" rx="12.62"/></g><g id="BoomBoxDetailBox"><path class="cls-2" d="M218.8,100.54V331.69a.65.65,0,0,0,.65.65H390.76a.65.65,0,0,0,.64-.65V100.54a.64.64,0,0,0-.64-.64H219.45A.65.65,0,0,0,218.8,100.54ZM373.12,203.21H237.72a.65.65,0,0,1-.65-.65V120.07a.65.65,0,0,1,.65-.64h135.4a.64.64,0,0,1,.64.64v82.49A.65.65,0,0,1,373.12,203.21Z"/><rect id="OutterCassette" class="cls-3" x="253.06" y="217.56" width="105.51" height="59.26"/><rect id="InnerCassette" class="cls-4" x="260.26" y="224.41" width="90.78" height="45.56"/><rect id="GoBackSong" class="cls-5" x="229.77" y="288.82" width="28.78" height="12.68"/><rect id="Rewind" class="cls-5" x="260.26" y="288.82" width="28.78" height="12.68"/><rect id="Pause_Play" data-name="Pause/Play" class="cls-5" x="290.71" y="288.82" width="28.78" height="12.68"/><rect id="FastForward" class="cls-5" x="321.39" y="288.82" width="28.78" height="12.68"/><rect id="SkipSong" class="cls-5" x="352.07" y="288.82" width="28.78" height="12.68"/><rect id="DetailCenterBase" class="cls-1" x="230.71" y="313.48" width="147.3" height="4.22"/><rect id="AccentTopLeft" class="cls-6" x="59.17" y="104.99" width="143.63" height="24.58" rx="1.18"/><rect id="AccentTopRight" class="cls-6" x="408.46" y="104.99" width="143.63" height="24.58" rx="0.99"/><rect id="AccentBottomRight" class="cls-6" x="408.46" y="307.9" width="143.63" height="24.58" rx="1.2"/><rect id="AccentBottomLeft" class="cls-6" x="59.17" y="307.9" width="143.63" height="24.58" rx="0.91"/><path id="LeftSpeakerBoarder" class="cls-7" d="M131,149.15a73,73,0,1,0,73,73A73,73,0,0,0,131,149.15Zm0,132.59a59.59,59.59,0,1,1,59.59-59.59A59.59,59.59,0,0,1,131,281.74Z"/><path id="RightSpeakerBorder" class="cls-8" d="M481.46,149.15a73,73,0,1,0,73,73A73,73,0,0,0,481.46,149.15Zm0,132.59a59.59,59.59,0,1,1,59.59-59.59A59.59,59.59,0,0,1,481.46,281.74Z"/><path id="BoomBoxHandle" class="cls-9" d="M115.11,43.79V29.22l4.74-9.49H486.62l6,10v14h8.25V8.42A8.42,8.42,0,0,0,492.42,0H113a5.27,5.27,0,0,0-5.27,5.27V43.79Z"/><polygon id="Play" class="cls-2" points="307.3 292.3 307.3 298.22 312.57 295.26 307.3 292.3"/><g id="Pause"><rect class="cls-2" x="301.56" y="292.3" width="1.24" height="5.92"/><rect class="cls-2" x="298.76" y="292.3" width="1.24" height="5.92"/></g><g id="FastForwardSymbol"><polygon id="Play-2" data-name="Play" class="cls-2" points="330.51 292.36 330.51 298.27 335.78 295.31 330.51 292.36"/><polygon id="Play-3" data-name="Play" class="cls-2" points="335.78 292.25 335.78 298.17 341.05 295.21 335.78 292.25"/></g><g id="RewindSymbol"><polygon id="Play-4" data-name="Play" class="cls-2" points="279.11 292.25 279.11 298.17 273.85 295.21 279.11 292.25"/><polygon id="Play-5" data-name="Play" class="cls-2" points="273.85 292.14 273.85 298.06 268.57 295.1 273.85 292.14"/></g><g id="SkipSongSymbol"><g id="FastForwardSymbol-2" data-name="FastForwardSymbol"><polygon id="Play-6" data-name="Play" class="cls-2" points="360.81 292.41 360.81 298.33 366.08 295.37 360.81 292.41"/><polygon id="Play-7" data-name="Play" class="cls-2" points="366.08 292.3 366.08 298.22 371.35 295.26 366.08 292.3"/></g><rect class="cls-2" x="371.28" y="292.3" width="0.82" height="6.03"/></g><g id="SkipSongSymbol-2" data-name="SkipSongSymbol"><g id="FastForwardSymbol-3" data-name="FastForwardSymbol"><polygon id="Play-8" data-name="Play" class="cls-2" points="249.8 292.46 249.8 298.38 244.53 295.42 249.8 292.46"/><polygon id="Play-9" data-name="Play" class="cls-2" points="244.53 292.36 244.53 298.27 239.26 295.31 244.53 292.36"/></g><rect class="cls-2" x="238.51" y="292.35" width="0.82" height="6.03" transform="translate(477.84 590.74) rotate(-180)"/></g><g id="LeftHighlight"><g id="LeftTopHighlight"><path class="cls-10" d="M130.76,150.94c.74,0,1.62.21,2.4.26,2.31.12,3.91,4.26,3.91,4.26,12.41,1.4,27.77,7.43,36.7,12.78,11.26,6.74-3.78-5.64-7.06-7.58a69.09,69.09,0,0,0-35-9.48,72.15,72.15,0,0,0-33.25,8.17c-3.7,1.94-21.36,14.91-8.14,7.93,8-4.24,22.35-9.57,33.84-11.46a8.4,8.4,0,0,1,2.4-3.83c1.18-1,3.37-1,4.16-1.05C131.21,150.92,130.33,150.94,130.76,150.94Z"/></g><path id="LeftBottomHighlight" class="cls-11" d="M129.54,285.55s15.69.16,23.66-2.76,5.83,2,1.23,4.6-16.51,4.75-24.89,4.6-19.11-2.6-22.33-4.29-7.2-6.29-1.53-4.91S123.53,285.69,129.54,285.55Z"/></g><g id="RightHighlight"><path id="RightBottomHighlight" class="cls-11" d="M480.28,285.55s15.69.16,23.66-2.76,5.82,2,1.22,4.6-16.51,4.75-24.88,4.6-19.11-2.6-22.33-4.29-7.2-6.29-1.53-4.91S474.26,285.69,480.28,285.55Z"/><g id="RightTopHighlight"><path class="cls-10" d="M481.12,151c.75,0,1.62.22,2.41.26,2.31.12,3.9,4.27,3.9,4.27,12.41,1.39,27.78,7.42,36.7,12.77,11.26,6.75-3.77-5.63-7.06-7.57a69,69,0,0,0-35-9.48,72.21,72.21,0,0,0-33.25,8.17c-3.7,1.94-21.36,14.9-8.14,7.93,8-4.24,22.35-9.58,33.84-11.46A8.42,8.42,0,0,1,477,152c1.18-.95,3.37-1,4.15-1C481.57,151,480.69,151,481.12,151Z"/></g></g><g id="InnerCassette-2" data-name="InnerCassette"><g id="InnerCassette-3" data-name="InnerCassette"><circle class="cls-12" cx="284.17" cy="246.36" r="17.39"/><g id="LeftMoving"><circle class="cls-12" cx="284.17" cy="246.01" r="17.39"/><circle class="cls-13" cx="284.17" cy="246.01" r="15.74"/><circle class="cls-14" cx="284.17" cy="246.01" r="14.95"/><circle class="cls-15" cx="284.17" cy="246.01" r="14.34"/><circle class="cls-16" cx="284.17" cy="246.01" r="13.61"/></g><g id="Moving_Cassette" data-name="Moving Cassette"><circle class="cls-12" cx="328.14" cy="246.36" r="17.39"/><circle class="cls-13" cx="328.14" cy="246.36" r="15.74"/><circle class="cls-14" cx="328.14" cy="246.36" r="14.95"/><circle class="cls-15" cx="328.14" cy="246.36" r="14.34"/><circle class="cls-16" cx="328.14" cy="246.36" r="13.61"/><circle class="cls-17" cx="328.14" cy="246.36" r="12.41"/></g><circle class="cls-11" cx="284.17" cy="246.36" r="6.44"/><circle class="cls-11" cx="328.14" cy="246.36" r="6.44"/><circle class="cls-18" cx="328.14" cy="246.36" r="5.5"/><circle class="cls-18" cx="284.17" cy="246.36" r="5.5"/></g></g><rect id="CenterPieceOutline" class="cls-19" x="222.99" y="103.65" width="164.23" height="225.33"/><circle class="cls-20" cx="358.57" cy="68.55" r="11.58"/><circle class="cls-21" cx="412.53" cy="68.55" r="11.58"/><circle class="cls-22" cx="305.82" cy="68.55" r="11.58"/><circle class="cls-23" cx="251.79" cy="68.55" r="11.58"/><circle class="cls-24" cx="197.75" cy="68.55" r="11.58"/><g id="ShadowTopDials"><path class="cls-25" d="M305.82,57a10.34,10.34,0,1,1-10.34,10.34A10.34,10.34,0,0,1,305.82,57,11.58,11.58,0,1,0,317.4,68.55,11.57,11.57,0,0,0,305.82,57Z"/><path class="cls-25" d="M251.79,57a10.34,10.34,0,1,1-10.35,10.34A10.34,10.34,0,0,1,251.79,57a11.58,11.58,0,1,0,11.58,11.58A11.57,11.57,0,0,0,251.79,57Z"/><path class="cls-25" d="M197.75,57a10.34,10.34,0,1,1-10.34,10.34A10.34,10.34,0,0,1,197.75,57a11.58,11.58,0,1,0,11.58,11.58A11.57,11.57,0,0,0,197.75,57Z"/><path class="cls-25" d="M358.57,57a10.34,10.34,0,1,1-10.34,10.34A10.34,10.34,0,0,1,358.57,57a11.58,11.58,0,1,0,11.58,11.58A11.57,11.57,0,0,0,358.57,57Z"/><path class="cls-25" d="M412.53,57a10.34,10.34,0,1,1-10.34,10.34A10.34,10.34,0,0,1,412.53,57a11.58,11.58,0,1,0,11.58,11.58A11.57,11.57,0,0,0,412.53,57Z"/></g><g id="Details_Right_Speaker_Rim" data-name="Details Right Speaker Rim"><g id="RightSpeakerRimDetail"><circle class="cls-26" cx="480.42" cy="154.78" r="3.82"/></g><g id="RightDetailShading"><path class="cls-27" d="M481.12,150.72a4.95,4.95,0,1,0,4.94,4.94A4.94,4.94,0,0,0,481.12,150.72Zm-.7,7.64a3.7,3.7,0,1,1,3.7-3.7A3.7,3.7,0,0,1,480.42,158.36Z"/><path class="cls-27" d="M416.93,200.79a4.94,4.94,0,1,0,4.94,4.94A4.94,4.94,0,0,0,416.93,200.79Zm-.7,7.64a3.7,3.7,0,1,1,3.7-3.7A3.7,3.7,0,0,1,416.23,208.43Z"/><path class="cls-28" d="M438,267.38a4.95,4.95,0,1,0,4.94,4.94A4.95,4.95,0,0,0,438,267.38Zm-.17,8.83a4.06,4.06,0,1,1,4.06-4A4,4,0,0,1,437.86,276.21Z"/><path class="cls-28" d="M525.09,267.38a4.95,4.95,0,1,0,4.94,4.94A4.95,4.95,0,0,0,525.09,267.38Zm-.17,8.83a4.06,4.06,0,1,1,4.06-4A4,4,0,0,1,524.92,276.21Z"/></g><g id="RightSpeakerRimDetail-2" data-name="RightSpeakerRimDetail"><circle class="cls-29" cx="416.23" cy="204.73" r="3.82"/></g><g id="RightSpeakerRimDetail-3" data-name="RightSpeakerRimDetail"><circle class="cls-30" cx="437.86" cy="272.16" r="4.05"/></g><g id="RightSpeakerRimDetail-4" data-name="RightSpeakerRimDetail"><circle class="cls-31" cx="524.92" cy="272.16" r="4.05"/></g><path class="cls-27" d="M546,200.42a4.95,4.95,0,1,0,5,5A4.95,4.95,0,0,0,546,200.42Zm-.7,7.65a3.7,3.7,0,1,1,3.7-3.7A3.7,3.7,0,0,1,545.29,208.07Z"/><g id="RightSpeakerRimDetail-5" data-name="RightSpeakerRimDetail"><circle class="cls-32" cx="545.29" cy="204.37" r="3.82"/></g></g><g id="Details_Right_Speaker_Rim-2" data-name="Details Right Speaker Rim"><g id="RightSpeakerRimDetail-6" data-name="RightSpeakerRimDetail"><circle class="cls-33" cx="129.94" cy="154.52" r="3.82"/></g><g id="RightDetailShading-2" data-name="RightDetailShading"><path class="cls-27" d="M130.65,150.46a4.94,4.94,0,1,0,4.94,4.94A4.95,4.95,0,0,0,130.65,150.46Zm-.71,7.64a3.7,3.7,0,1,1,3.7-3.7A3.7,3.7,0,0,1,129.94,158.1Z"/><path class="cls-27" d="M66.46,200.52a4.95,4.95,0,1,0,4.94,4.95A5,5,0,0,0,66.46,200.52Zm-.71,7.64a3.7,3.7,0,1,1,3.7-3.69A3.69,3.69,0,0,1,65.75,208.16Z"/><path class="cls-28" d="M87.55,267.12a4.95,4.95,0,1,0,5,4.94A4.94,4.94,0,0,0,87.55,267.12ZM87.39,276a4.06,4.06,0,1,1,4-4.05A4.05,4.05,0,0,1,87.39,276Z"/><path class="cls-28" d="M174.61,267.12a4.95,4.95,0,1,0,4.95,4.94A4.94,4.94,0,0,0,174.61,267.12Zm-.16,8.83a4.06,4.06,0,1,1,4.05-4.05A4.05,4.05,0,0,1,174.45,276Z"/></g><g id="RightSpeakerRimDetail-7" data-name="RightSpeakerRimDetail"><circle class="cls-34" cx="65.75" cy="204.47" r="3.82"/></g><g id="RightSpeakerRimDetail-8" data-name="RightSpeakerRimDetail"><circle class="cls-35" cx="87.39" cy="271.9" r="4.05"/></g><g id="RightSpeakerRimDetail-9" data-name="RightSpeakerRimDetail"><circle class="cls-36" cx="174.45" cy="271.9" r="4.05"/></g><path class="cls-27" d="M195.52,200.16a4.95,4.95,0,1,0,4.94,5A4.95,4.95,0,0,0,195.52,200.16Zm-.7,7.64a3.7,3.7,0,1,1,3.7-3.69A3.69,3.69,0,0,1,194.82,207.8Z"/><g id="RightSpeakerRimDetail-10" data-name="RightSpeakerRimDetail"><circle class="cls-37" cx="194.82" cy="204.11" r="3.82"/></g></g></g><g id="CHANGING-ORIGINAL"><rect id="Column1Item1" class="cls-38" x="247.17" y="190.05" width="17.39" height="9.72"/><rect id="Column1Item2" class="cls-38" x="247.17" y="176.88" width="17.39" height="9.72"/><rect id="Column2Item1" class="cls-38" x="272.28" y="190.29" width="17.39" height="9.72"/><rect id="Column3Item2" class="cls-38" x="297.12" y="176.88" width="17.39" height="9.72"/><rect id="Column3Item3" class="cls-38" x="297.12" y="163.47" width="17.39" height="9.72"/><rect id="Column3Item1" class="cls-38" x="297.12" y="190.29" width="17.39" height="9.72"/><rect id="Column4Item1" class="cls-38" x="321.7" y="190.29" width="17.39" height="9.72"/><rect id="Column5Item1" class="cls-38" x="345.53" y="190.29" width="17.39" height="9.72"/><rect id="Column4Item2" class="cls-38" x="321.7" y="176.88" width="17.39" height="9.72"/></g></svg>