<?xml version="1.0" encoding="utf-8"?>
<!-- Generator: Adobe Illustrator 23.1.1, SVG Export Plug-In . SVG Version: 6.00 Build 0)  -->
<svg version="1.1" id="background" xmlns="http://www.w3.org/2000/svg" xmlns:xlink="http://www.w3.org/1999/xlink" x="0px" y="0px"
	 viewBox="0 0 180 180" style="enable-background:new 0 0 180 180;" xml:space="preserve">
<style type="text/css">
	.st0{fill:#B3B3B3;}
	.st1{fill:none;stroke:#B3B3B3;stroke-width:15;stroke-linecap:round;stroke-miterlimit:10;}
</style>
<g>
	<path class="st0" d="M90,10c44.1,0,80,35.9,80,80s-35.9,80-80,80s-80-35.9-80-80S45.9,10,90,10 M90,0C40.3,0,0,40.3,0,90
		s40.3,90,90,90s90-40.3,90-90S139.7,0,90,0L90,0z"/>
</g>
<path class="st1" d="M46,90c0,24.3,19.7,44,44,44s44-19.7,44-44s-19.7-44-44-44"/>
<polygon class="st0" points="46.1,67.1 18.2,95 74,95 "/>
</svg>
