<svg id="microphone4" xmlns="http://www.w3.org/2000/svg" xmlns:xlink="http://www.w3.org/1999/xlink" viewBox="0 0 105 105"><defs><style>.cls-1{fill:#d93a72;}.cls-2{fill:none;stroke-miterlimit:10;stroke-width:5px;stroke:url(#linear-gradient);}</style><linearGradient id="linear-gradient" y1="52.5" x2="105" y2="52.5" gradientUnits="userSpaceOnUse"><stop offset="0" stop-color="#d2147e"/><stop offset="1" stop-color="#df4f67"/></linearGradient></defs><path id="microphoneAudio" class="cls-1" d="M74.1,17.43c-2.22-3.36-4.87-5.34-10.87-7.87S48.31,8,48.31,8a24.69,24.69,0,0,0-7.22,2A6.64,6.64,0,0,0,37.3,13.7L34.14,27.19S30.78,40.92,30,44.77s-2,6.87,2.1,10.81A26.29,26.29,0,0,0,39.87,61s-.55,2.66-1.29,7,1.59,5.4,1.59,5.4a3.63,3.63,0,0,0,2.55.81l7.56-.1c-.9-.52-1-.75-1.8-1.95s.05-5,.05-5l.95-5.54s0-1.1.82-1a.72.72,0,0,1,.65.9s-.3,2.27-1,5.74-.1,5.29,1.75,6.42a2.88,2.88,0,0,0,3.2.1c-2.3,0-2.82-2.45-2.85-3.57s.63-3.8,2.4-4.07a2.84,2.84,0,0,1,2.72,1.52l.58-4.1a17.23,17.23,0,0,0,8.48-2.94,6.17,6.17,0,0,0,2.53-4.21c.31-1.68,3-14.83,3-14.83s3-13.82,3.42-15.32S76.32,20.8,74.1,17.43ZM65.91,56.09s-12.5-7.08-14-7.57S40,47.92,40,47.92l-7.87,0,.81-3.59h.22l15.54,0a8.88,8.88,0,0,1,4.13.85s4.81,2.43,6.14,3.38,1.57-.14,1.57-.14l.38-1.68c.25-.87-.21-1.22-.21-1.22L56.32,43c-3.9-2.28-5.55-2-5.55-2l-16.9-.09-.16,0,.62-2.75h.24l15.53,0a8.88,8.88,0,0,1,4.13.85s4.81,2.43,6.14,3.38S62,42.14,62,42.14l.37-1.68c.25-.87-.21-1.22-.21-1.22l-4.38-2.46c-3.9-2.28-5.55-2-5.55-2l-16.9-.09-.17,0,.67-3h.27l15.53,0a8.88,8.88,0,0,1,4.13.85s4.81,2.43,6.14,3.38,1.58-.14,1.58-.14L63.8,34c.25-.88-.21-1.22-.21-1.22l-4.38-2.46c-3.9-2.28-5.54-2-5.54-2l-16.91-.09-.2-.05.65-2.85h.18l15.54-.05a8.88,8.88,0,0,1,4.13.85s4.8,2.43,6.14,3.38,1.57-.14,1.57-.14l.38-1.68c.24-.87-.21-1.22-.21-1.22L60.56,24C56.66,21.77,55,22,55,22l-16.9-.1-.12,0L38.65,19h.13l15.54-.05a8.8,8.8,0,0,1,4.13.86s4.81,2.42,6.14,3.38S66.17,23,66.17,23l.37-1.68c.25-.88-.21-1.22-.21-1.22L62,17.67c-3.9-2.28-5.55-2-5.55-2l-16.83-.09a7.76,7.76,0,0,1,2.71-3.26s4.58-3,15.36-1.48S72.3,19.92,72.3,19.92A5.26,5.26,0,0,1,73,22.8c0,.25-.07.57-.12.93l-1.9-1s-.94-.6-1.22.36-.5,2.1-.5,2.1a.71.71,0,0,0,.35.83l2.57,1.33c-.15.72-.27,1.23-.27,1.23l-.35,1.55-2-1.05s-.94-.61-1.22.36-.5,2.1-.5,2.1a.71.71,0,0,0,.35.83c.37.18,1.79.92,2.53,1.31l-.62,2.75-1.87-1s-1-.6-1.22.37-.5,2.1-.5,2.1a.7.7,0,0,0,.34.82L69.41,40l-.6,2.86-2-1.08s-1-.6-1.22.36-.5,2.1-.5,2.1a.71.71,0,0,0,.34.83l2.64,1.37-.37,1.76-.22,1-2-1.07s-.95-.6-1.22.36-.5,2.1-.5,2.1a.71.71,0,0,0,.34.83c.39.19,1.85,1,2.58,1.33Z" transform="translate(0 -0.07)"/><rect id="standLeft" class="cls-1" x="40.39" y="75.31" width="8.09" height="22.01"/><rect id="standRight" class="cls-1" x="50.02" y="75.31" width="3.33" height="22.01"/><path id="jointRight" class="cls-1" d="M37.16,70.68a32,32,0,0,1,.56-4.43A6.13,6.13,0,0,0,36,68.55,4.6,4.6,0,0,0,36.76,73a1.85,1.85,0,0,0,2.15.64A4,4,0,0,1,37.16,70.68Z" transform="translate(0 -0.07)"/><path id="jointRight-2" data-name="jointRight" class="cls-1" d="M55.32,67.6c-.91,0-1.65,1.06-1.65,2.37s.74,2.37,1.65,2.37S57,71.28,57,70,56.23,67.6,55.32,67.6Z" transform="translate(0 -0.07)"/><rect id="border" class="cls-2" x="2.5" y="2.5" width="100" height="100" rx="12"/></svg>