<svg xmlns="http://www.w3.org/2000/svg" xmlns:xlink="http://www.w3.org/1999/xlink" viewBox="0 0 105 105"><defs><style>.cls-1{fill:url(#linear-gradient);}.cls-2{fill:url(#linear-gradient-2);}.cls-3{fill:url(#linear-gradient-3);}.cls-4{fill:url(#linear-gradient-4);}.cls-5{fill:none;stroke-miterlimit:10;stroke-width:5px;stroke:url(#linear-gradient-5);}</style><linearGradient id="linear-gradient" x1="52.5" y1="20.68" x2="49.75" y2="15.61" gradientUnits="userSpaceOnUse"><stop offset="0" stop-color="#662d91"/><stop offset="1" stop-color="#9e005d"/></linearGradient><linearGradient id="linear-gradient-2" x1="57.83" y1="61.63" x2="44.4" y2="21.18" xlink:href="#linear-gradient"/><linearGradient id="linear-gradient-3" x1="40.5" y1="98.67" x2="26.96" y2="57.91" xlink:href="#linear-gradient"/><linearGradient id="linear-gradient-4" x1="59.27" y1="53.47" x2="46.1" y2="13.79" xlink:href="#linear-gradient"/><linearGradient id="linear-gradient-5" x1="-0.21" y1="52.49" x2="104.79" y2="52.49" gradientUnits="userSpaceOnUse"><stop offset="0" stop-color="#9e005d"/><stop offset="1" stop-color="#93278f"/></linearGradient></defs><title>Artboard 4</title><g id="High_Hat" data-name="High Hat"><path class="cls-1" d="M51.12,15s-1.81.45-1.81,1.81v3.28a30.31,30.31,0,0,1,3.62.39V16.67S53,15.08,51.12,15Z"/><path class="cls-2" d="M53,28.87c-21.88-3.24-40.45-.26-41.47,6.67S27.38,50.71,49.26,54s40.45.25,41.48-6.67S74.86,32.11,53,28.87ZM46.91,53.58l-.77-.13-3.65-.69,5.19-5.27a4.75,4.75,0,0,0,1.37-3.34V41.41c0-.7.3-2.53,2.07-2.41s1.69,2.41,1.69,2.41v4a5.26,5.26,0,0,1-1.5,3.68Z"/><path class="cls-3" d="M42.49,52.76l4.42.82-4,3.78,0,40.52H37.8V62.81L17.23,83s-1.69,1.77-3,.43,1.1-3.71,1.1-3.71Z"/><path class="cls-4" d="M54.67,21.48c-21.88-3.24-40.45-.26-41.48,6.67a4.52,4.52,0,0,0,.35,2.43c5.56-4.51,21.34-6.08,39.38-3.4,19.37,2.87,34.83,9.65,37.42,16a5.28,5.28,0,0,0,2.09-3.26C93.46,33,76.55,24.72,54.67,21.48Z"/></g><g id="Layer_1" data-name="Layer 1"><rect class="cls-5" x="2.29" y="2.49" width="100" height="100" rx="12"/></g></svg>