<svg id="microphone3" xmlns="http://www.w3.org/2000/svg" xmlns:xlink="http://www.w3.org/1999/xlink" viewBox="0 0 105 105"><defs><style>.cls-1{fill:url(#linear-gradient);}.cls-2{fill:url(#linear-gradient-2);}.cls-3{fill:url(#linear-gradient-3);}.cls-4{fill:url(#linear-gradient-4);}.cls-5{fill:url(#linear-gradient-5);}.cls-6{fill:url(#linear-gradient-6);}.cls-7{fill:url(#linear-gradient-7);}.cls-8{fill:none;stroke-miterlimit:10;stroke-width:5px;stroke:url(#linear-gradient-8);}</style><linearGradient id="linear-gradient" x1="59.05" y1="24.71" x2="90.18" y2="24.71" gradientUnits="userSpaceOnUse"><stop offset="0" stop-color="#d2147e"/><stop offset="1" stop-color="#df4f67"/></linearGradient><linearGradient id="linear-gradient-2" x1="55.85" y1="31.71" x2="79.09" y2="31.71" xlink:href="#linear-gradient"/><linearGradient id="linear-gradient-3" x1="49.68" y1="41.44" x2="65.61" y2="41.44" xlink:href="#linear-gradient"/><linearGradient id="linear-gradient-4" x1="14.79" y1="78.77" x2="25.53" y2="78.77" xlink:href="#linear-gradient"/><linearGradient id="linear-gradient-5" x1="21.09" y1="59.61" x2="58.12" y2="59.61" xlink:href="#linear-gradient"/><linearGradient id="linear-gradient-6" x1="40.17" y1="81.48" x2="44.16" y2="81.48" xlink:href="#linear-gradient"/><linearGradient id="linear-gradient-7" x1="44.77" y1="80.84" x2="45.67" y2="80.84" xlink:href="#linear-gradient"/><linearGradient id="linear-gradient-8" x1="0" y1="52.5" x2="105" y2="52.5" xlink:href="#linear-gradient"/></defs><g id="microphoneAudio"><path id="topMic" class="cls-1" d="M73,9.15a17.12,17.12,0,0,0-14,7.21C60,17.83,66.3,27.6,69.94,31c3.94,3.68,7.48,6.89,13,9.27A17.15,17.15,0,0,0,73,9.15Z" transform="translate(0.02 0)"/><path id="bottomMic" class="cls-2" d="M66.29,33a55.93,55.93,0,0,1-9.2-13,16.95,16.95,0,0,0-.17,12.29,41.47,41.47,0,0,0,9.41,9.9,17.07,17.07,0,0,0,12.76.22C77.31,41.37,70.37,37.42,66.29,33Z" transform="translate(0.02 0)"/></g><path id="topBody" class="cls-3" d="M53.78,33.48s4.82,7.83,11.83,12c0,0-3.91,3.55-4.46,3.91,0,0-7.65-4.28-11.47-11.2C49.68,38.21,53.23,34.39,53.78,33.48Z" transform="translate(0.02 0)"/><path id="bottomMic-2" data-name="bottomMic" class="cls-4" d="M18.91,73.39,25.53,80l-4,3.48a4.06,4.06,0,0,1-5.39-.89c-2.39-2.86-1.23-4.84,0-6.07S18.91,73.39,18.91,73.39Z" transform="translate(0.02 0)"/><path id="bodyMic" class="cls-5" d="M47.58,41.44c-3.67,3.13-26.49,29.4-26.49,29.4l7.36,6.94,8.31-7.54,6.07-5.08c3.53-2.72,15.29-13.49,15.29-13.49C52.61,48.88,47.58,41.44,47.58,41.44ZM43,58.66c-1.6,1.61-3.53,2.29-4.29,1.53s-.09-2.69,1.52-4.3,3.53-2.29,4.3-1.52S44.63,57.05,43,58.66Z" transform="translate(0.02 0)"/><polygon id="standLeft" class="cls-6" points="44.16 65.63 40.16 69.1 40.16 97.32 44.16 97.32 44.16 65.63"/><polygon id="standRight" class="cls-7" points="44.79 65.18 44.77 97.32 45.67 97.32 45.67 64.36 44.79 65.18"/><rect id="border" class="cls-8" x="2.5" y="2.5" width="100" height="100" rx="12"/></svg>