<svg xmlns="http://www.w3.org/2000/svg" xmlns:xlink="http://www.w3.org/1999/xlink" viewBox="0 0 105 105"><defs><style>.cls-1{fill:url(#linear-gradient);}.cls-2{fill:url(#linear-gradient-2);}.cls-3{fill:none;stroke-miterlimit:10;stroke-width:5px;stroke:url(#linear-gradient-3);}</style><linearGradient id="linear-gradient" x1="32.59" y1="81.22" x2="42.19" y2="81.22" gradientUnits="userSpaceOnUse"><stop offset="0" stop-color="blue"/><stop offset="1" stop-color="#0071bc"/></linearGradient><linearGradient id="linear-gradient-2" x1="22.1" y1="53.45" x2="79.68" y2="53.45" xlink:href="#linear-gradient"/><linearGradient id="linear-gradient-3" x1="-0.04" y1="52.3" x2="104.96" y2="52.3" xlink:href="#linear-gradient"/></defs><title>Artboard 7</title><g id="Bell"><path class="cls-1" d="M42.19,78.11l-3.3-2.25S37.16,79,35.82,79.55a5.9,5.9,0,0,0-2.28,1.54,3.09,3.09,0,0,0-.44.57l-.05,0h0a3.21,3.21,0,1,0,5.68,3h0a6.65,6.65,0,0,0,.74-2.87C39.34,80.69,42.19,78.11,42.19,78.11Z"/><path class="cls-2" d="M77.52,19.93c-3.56-2.45-10.27,1.11-15,8-3,4.3-4.44,8.88-4.24,12.3v0c0,.25,0,.45,0,.69,0,1.53-1.73,2.26-2.57,2.52l-.44.12h0c-.37.11-.68.22-.94.32a7.07,7.07,0,0,0-1.33.84C46.3,51.19,41.09,54.6,37.7,56.36a18.06,18.06,0,0,1-6.58,1.94C27,58.72,18.74,60.39,23.57,67c6.32,8.57,27.81,21.21,35,20.79s2-6.18,1.54-13.77,3.09-10.81,4.36-20.08a38,38,0,0,0,.37-4.5.09.09,0,0,0,0,0c.24-3.37,1.18-4.4,1.51-4.57h0c3-1.25,6.38-4.08,9.08-8C80.14,29.92,81.08,22.38,77.52,19.93ZM54.7,49.45,41.6,60.21a1.19,1.19,0,0,1-1.66-.16h0a1.18,1.18,0,0,1,.16-1.66L53.2,47.63a1.19,1.19,0,0,1,1.66.16h0A1.18,1.18,0,0,1,54.7,49.45Zm18-14.15c-3.85,5.59-8.73,8.9-10.9,7.41s-.81-7.24,3-12.82S73.6,21,75.77,22.48,76.57,29.72,72.72,35.3Z"/></g><g id="Layer_1" data-name="Layer 1"><rect class="cls-3" x="2.46" y="2.3" width="100" height="100" rx="12"/></g></svg>