<svg xmlns="http://www.w3.org/2000/svg" xmlns:xlink="http://www.w3.org/1999/xlink" viewBox="0 0 105 105"><defs><style>.cls-1{fill:url(#linear-gradient);}.cls-2{fill:none;stroke-miterlimit:10;stroke-width:5px;stroke:url(#linear-gradient-2);}</style><linearGradient id="linear-gradient" x1="18.48" y1="52.49" x2="89.5" y2="52.49" gradientUnits="userSpaceOnUse"><stop offset="0" stop-color="#ed1c24"/><stop offset="1" stop-color="#fcee21"/></linearGradient><linearGradient id="linear-gradient-2" x1="-0.21" y1="52.49" x2="104.79" y2="52.49" xlink:href="#linear-gradient"/></defs><title>Artboard 6</title><g id="KeyBoard_1" data-name="KeyBoard 1"><path class="cls-1" d="M89.09,52.52a12,12,0,0,0-11.59-9h-12s-6.21-.08-8.47-2.27a10,10,0,0,1-3-6.23,4.39,4.39,0,0,0-.16-1.12v0h0c-1-3.68-6.12-7.67-13-9.72A26.86,26.86,0,0,0,30.65,23a15.76,15.76,0,0,0-6.47,1.39c-2.55.87-4.67,3.83-5.7,7.79v5.5c0,2.33.27,6.44.27,6.44L18.5,54.23h0c0,.16,0,.32,0,.47V75.85a6.24,6.24,0,0,0,6.22,6.22H83.27a6.24,6.24,0,0,0,6.23-6.22V54.69A6.06,6.06,0,0,0,89.09,52.52ZM80.87,76.23v4.51H79V69.64h1.2v6.59Zm-2.28-6.59v11.1H76.71V76.23h.69V69.64ZM57.25,76.23V69.64h1.69v11.1H56.57V76.23Zm2.09-6.59H61v6.59h.69v4.51H59.34Zm2.77,6.59h.68V69.64h1v6.59h.68v4.51H62.11Zm2.73,0h.68V69.64h1.26v11.1H64.84Zm2.34-6.59h1.25v6.59h.69v4.51H67.18Zm2.34,6.59h.68V69.64h1.93v6.59h.68v4.51H69.52Zm3.69,0h.69V69.64h1.73v6.59h.68v4.51h-3.1ZM55.49,69.64v6.59h.68v4.51h-3.4V76.23h.68V69.64Zm-3.81,0v6.59h.69v4.51H49V76.23h.68V69.64Zm-8.62,6.59V69.64h2.06v11.1H42.37V76.23Zm2.47-6.59h2.35v6.59h.68v4.51h-3Zm-4.24,0v6.59H42v4.51h-2V76.23h.69V69.64ZM35,76.23V69.64h1.49v11.1H34.28V76.23Zm1.89-6.59h2v6.59h.68v4.51H36.85Zm-3.65,0v6.59h.68v4.51h-3V76.23h.68V69.64Zm-5.41,6.59V69.64h2v6.59h.68v4.51H27.09V76.23Zm-3.21,3.41V70.73a1.09,1.09,0,0,1,1.1-1.09H26v6.59h.67v4.51h-1A1.1,1.1,0,0,1,24.58,79.64Zm58.82,0a1.1,1.1,0,0,1-1.1,1.1h-1V76.23H82V69.64h.34a1.09,1.09,0,0,1,1.1,1.09Z"/></g><g id="Layer_1" data-name="Layer 1"><rect class="cls-2" x="2.29" y="2.49" width="100" height="100" rx="12"/></g></svg>