<svg xmlns="http://www.w3.org/2000/svg" xmlns:xlink="http://www.w3.org/1999/xlink" viewBox="0 0 105 105"><defs><style>.cls-1{fill:url(#linear-gradient);}.cls-2{fill:url(#linear-gradient-2);}.cls-3{fill:url(#linear-gradient-3);}.cls-4{fill:url(#linear-gradient-4);}.cls-5{fill:url(#linear-gradient-5);}.cls-6{fill:url(#linear-gradient-6);}.cls-7{fill:url(#linear-gradient-7);}.cls-8{fill:none;stroke-miterlimit:10;stroke-width:5px;stroke:url(#linear-gradient-8);}</style><linearGradient id="linear-gradient" x1="59.09" y1="24.58" x2="90.22" y2="24.58" gradientUnits="userSpaceOnUse"><stop offset="0" stop-color="#ed1c24"/><stop offset="1" stop-color="#f7931e"/></linearGradient><linearGradient id="linear-gradient-2" x1="55.89" y1="31.58" x2="79.14" y2="31.58" xlink:href="#linear-gradient"/><linearGradient id="linear-gradient-3" x1="49.72" y1="41.31" x2="65.66" y2="41.31" xlink:href="#linear-gradient"/><linearGradient id="linear-gradient-4" x1="14.83" y1="78.64" x2="25.57" y2="78.64" xlink:href="#linear-gradient"/><linearGradient id="linear-gradient-5" x1="21.13" y1="59.48" x2="58.16" y2="59.48" xlink:href="#linear-gradient"/><linearGradient id="linear-gradient-6" x1="40.19" y1="81.34" x2="44.18" y2="81.34" xlink:href="#linear-gradient"/><linearGradient id="linear-gradient-7" x1="44.79" y1="80.71" x2="45.7" y2="80.71" xlink:href="#linear-gradient"/><linearGradient id="linear-gradient-8" x1="0.03" y1="52.37" x2="105.03" y2="52.37" xlink:href="#linear-gradient"/></defs><title>Artboard 15</title><g id="Microphone_3" data-name="Microphone 3"><path class="cls-1" d="M73.06,9a17.14,17.14,0,0,0-14,7.21C60,17.69,66.34,27.46,70,30.87c3.94,3.68,7.48,6.89,13,9.27A17.15,17.15,0,0,0,73.06,9Z"/><path class="cls-2" d="M66.33,32.83a56.44,56.44,0,0,1-9.2-13A16.95,16.95,0,0,0,57,32.1,41.47,41.47,0,0,0,66.37,42a17,17,0,0,0,12.77.23C77.35,41.24,70.41,37.28,66.33,32.83Z"/><path class="cls-3" d="M53.82,33.34s4.83,7.83,11.84,12c0,0-3.92,3.55-4.46,3.92,0,0-7.65-4.28-11.48-11.2C49.72,38.08,53.27,34.25,53.82,33.34Z"/><path class="cls-4" d="M19,73.26l6.62,6.62-4,3.48a4.06,4.06,0,0,1-5.39-.89c-2.39-2.87-1.23-4.84,0-6.07S19,73.26,19,73.26Z"/><path class="cls-5" d="M47.62,41.31C44,44.43,21.13,70.71,21.13,70.71l7.36,6.93,8.31-7.53L42.87,65c3.54-2.71,15.29-13.48,15.29-13.48C52.65,48.75,47.62,41.31,47.62,41.31ZM43.07,58.53c-1.61,1.61-3.53,2.29-4.3,1.52s-.08-2.68,1.52-4.29,3.54-2.29,4.3-1.53S44.67,56.92,43.07,58.53Z"/><polygon class="cls-6" points="44.19 65.5 40.19 68.96 40.19 97.19 44.19 97.19 44.19 65.5"/><polygon class="cls-7" points="44.81 65.05 44.79 97.19 45.7 97.19 45.7 64.23 44.81 65.05"/></g><g id="Layer_1" data-name="Layer 1"><rect class="cls-8" x="2.53" y="2.37" width="100" height="100" rx="12"/></g></svg>