<svg xmlns="http://www.w3.org/2000/svg" xmlns:xlink="http://www.w3.org/1999/xlink" viewBox="0 0 105 105"><defs><style>.cls-1{fill:url(#linear-gradient);}.cls-2{fill:url(#linear-gradient-2);}.cls-3{fill:url(#linear-gradient-3);}.cls-4{fill:url(#linear-gradient-4);}.cls-5{fill:url(#linear-gradient-5);}.cls-6{fill:url(#linear-gradient-6);}.cls-7{fill:url(#linear-gradient-7);}.cls-8{fill:none;stroke-miterlimit:10;stroke-width:5px;stroke:url(#linear-gradient-8);}</style><linearGradient id="linear-gradient" x1="24.31" y1="35.83" x2="53.1" y2="35.83" gradientUnits="userSpaceOnUse"><stop offset="0" stop-color="#f0f"/><stop offset="1" stop-color="#662d91"/></linearGradient><linearGradient id="linear-gradient-2" x1="15.41" y1="30.8" x2="45.08" y2="30.8" xlink:href="#linear-gradient"/><linearGradient id="linear-gradient-3" x1="67.43" y1="67.16" x2="85.13" y2="67.16" xlink:href="#linear-gradient"/><linearGradient id="linear-gradient-4" x1="41.12" y1="53.44" x2="76.96" y2="53.44" xlink:href="#linear-gradient"/><linearGradient id="linear-gradient-5" x1="62.97" y1="62.47" x2="77.15" y2="62.47" xlink:href="#linear-gradient"/><linearGradient id="linear-gradient-6" x1="51.97" y1="80.96" x2="55.86" y2="80.96" xlink:href="#linear-gradient"/><linearGradient id="linear-gradient-7" x1="56.53" y1="82.7" x2="57.94" y2="82.7" xlink:href="#linear-gradient"/><linearGradient id="linear-gradient-8" x1="0.03" y1="52.37" x2="105.03" y2="52.37" xlink:href="#linear-gradient"/></defs><title>Artboard 14</title><g id="Microphone_2" data-name="Microphone 2"><path class="cls-1" d="M47.31,19.69A18.65,18.65,0,0,1,53.1,32h0c-4.08,10.28-14.6,18.67-16,19.73a18.6,18.6,0,0,1-12.81-2.62A55.4,55.4,0,0,0,47.31,19.69Z"/><path class="cls-2" d="M34.28,14.49a18.91,18.91,0,0,1,10.8,3.38C38.14,36,23,46.19,21.63,47.1A18.69,18.69,0,0,1,34.28,14.49ZM17,26.07a4.47,4.47,0,0,0-.41,1l-.3,1.07a.77.77,0,0,0,.34.08,1.05,1.05,0,0,0,.94-1.14A1.14,1.14,0,0,0,17,26.07Zm.81,3.25a1.24,1.24,0,0,0,1.09,1.35,1.38,1.38,0,0,0,0-2.7A1.25,1.25,0,0,0,17.79,29.32ZM40.46,18c.61,0,1.09-.72,1.09-1.6a2.53,2.53,0,0,0,0-.28,8.65,8.65,0,0,0-1-.46l-.9-.3a2,2,0,0,0-.27,1C39.37,17.28,39.86,18,40.46,18ZM37,21.77c.6,0,1.09-.71,1.09-1.6s-.49-1.59-1.09-1.59-1.09.71-1.09,1.59S36.37,21.77,37,21.77ZM35.88,16.4c.6,0,1.09-.71,1.09-1.6,0,0,0,0,0,0s-.53-.08-1.11-.12-1.08-.05-1.08-.05a1.21,1.21,0,0,0,0,.19C34.79,15.69,35.28,16.4,35.88,16.4ZM33.64,27.11c.6,0,1.09-.72,1.09-1.6s-.49-1.6-1.09-1.6-1.09.72-1.09,1.6S33,27.11,33.64,27.11Zm-.45-8c.61,0,1.09-.71,1.09-1.59S33.8,16,33.19,16s-1.08.71-1.08,1.6S32.59,19.15,33.19,19.15ZM29.54,32.31c.6,0,1.09-.72,1.09-1.6s-.49-1.6-1.09-1.6-1.09.72-1.09,1.6S28.94,32.31,29.54,32.31Zm0-8.4c.6,0,1.09-.71,1.09-1.59s-.49-1.6-1.09-1.6-1.09.71-1.09,1.6S28.94,23.91,29.54,23.91Zm0-6.6A1.25,1.25,0,0,0,30.63,16a1.38,1.38,0,0,0-.33-1s-.59.12-.86.2c-.46.13-.92.29-.92.29a1.72,1.72,0,0,0-.07.47A1.25,1.25,0,0,0,29.54,17.31Zm-2.12,2.62a1.24,1.24,0,0,0-1.09-1.35,1.24,1.24,0,0,0-1.09,1.35,1.25,1.25,0,0,0,1.09,1.35A1.25,1.25,0,0,0,27.42,19.93Zm-1.86,5.58c-.6,0-1.09.72-1.09,1.6s.49,1.6,1.09,1.6,1.09-.72,1.09-1.6S26.16,25.51,25.56,25.51Zm-.32,11.14c.6,0,1.09-.71,1.09-1.59s-.49-1.6-1.09-1.6-1.09.71-1.09,1.6S24.64,36.65,25.24,36.65Zm-.75-18.2a1.24,1.24,0,0,0-.38-.92l-.76.55-.73.56c0-.06,0,.07,0,0a1,1,0,0,0,.93.95A1.05,1.05,0,0,0,24.49,18.45Zm-2.34,5.1a1.39,1.39,0,0,0,0,2.71,1.39,1.39,0,0,0,0-2.71Zm1,8.08c0-.89-.48-1.6-1.09-1.6S21,30.74,21,31.63s.49,1.6,1.09,1.6S23.13,32.51,23.13,31.63Zm-1.61,9.28c.6,0,1.09-.71,1.09-1.6s-.49-1.59-1.09-1.59-1.09.71-1.09,1.59S20.92,40.91,21.52,40.91ZM20.43,22.78a1.08,1.08,0,0,0-.86-1.14h0l-1,1.36a.74.74,0,0,0,.05.21,1,1,0,0,0,.87.7A1.05,1.05,0,0,0,20.43,22.78ZM20,35.6c0-.88-.49-1.6-1.09-1.6s-1.09.72-1.09,1.6.49,1.6,1.09,1.6S20,36.48,20,35.6ZM17.9,42.17c.44.8.86,1.44.86,1.44a2,2,0,0,0,.31-1.1c0-.88-.49-1.6-1.09-1.6a.86.86,0,0,0-.61.27ZM16.26,34a1.38,1.38,0,0,0,0-2.7,1,1,0,0,0-.66.27s0,.53,0,1,0,1.18,0,1.18A.93.93,0,0,0,16.26,34Z"/><path class="cls-3" d="M80.74,57.33l.53.61c5.66,6.65,3.43,10.52,3.43,10.52s-6,11.56-14.2,7.76c-.74-.34-1.82-1-3.07-1.7C68.17,73.78,77.33,64.6,80.74,57.33Z"/><path class="cls-4" d="M41.12,54.05a44.24,44.24,0,0,0,15.42-19S69.21,45.85,77,53.44A47.88,47.88,0,0,1,63.2,71.82c-1.36-.9-2.72-1.84-4-2.73l-5.18-3.86C50.31,62.34,48.83,61,48.83,61,43.85,56.25,41.12,54.05,41.12,54.05Z"/><path class="cls-5" d="M77,52.93s-.21,0-.68,1S63.15,71.66,63.07,71.74s-.09.4.2.17c0,0,11.92-10.62,13.85-18.6C77.12,53.31,77.25,52.9,77,52.93Z"/><polygon class="cls-6" points="51.97 65.84 55.86 68.77 55.86 96.07 51.97 96.07 51.97 65.84"/><polygon class="cls-7" points="56.53 69.33 57.62 70.05 57.94 96.07 56.67 96.07 56.53 69.33"/></g><g id="Layer_1" data-name="Layer 1"><rect class="cls-8" x="2.53" y="2.37" width="100" height="100" rx="12"/></g></svg>