<svg id="snareDrum1" xmlns="http://www.w3.org/2000/svg" xmlns:xlink="http://www.w3.org/1999/xlink" viewBox="0 0 105 105"><defs><style>.cls-1{fill:url(#linear-gradient);}.cls-2{fill:url(#linear-gradient-2);}.cls-3{fill:url(#linear-gradient-3);}.cls-4,.cls-5{fill:none;}.cls-4{stroke-miterlimit:10;stroke-width:5px;stroke:url(#linear-gradient-4);}</style><linearGradient id="linear-gradient" x1="17.27" y1="56.43" x2="87.6" y2="56.43" gradientUnits="userSpaceOnUse"><stop offset="0" stop-color="#d2147e"/><stop offset="1" stop-color="#df4f67"/></linearGradient><linearGradient id="linear-gradient-2" x1="71.06" y1="29.07" x2="83.75" y2="29.07" xlink:href="#linear-gradient"/><linearGradient id="linear-gradient-3" x1="13.79" y1="56.22" x2="91.16" y2="56.22" xlink:href="#linear-gradient"/><linearGradient id="linear-gradient-4" x1="0" y1="52.5" x2="105" y2="52.5" xlink:href="#linear-gradient"/></defs><g id="snareDrum"><path class="cls-1" d="M47,68.27c2.15-2.07,21.54-20.73,33.92-32.55A35.35,35.35,0,0,0,69.72,25.65l-27,38.49a2.6,2.6,0,0,1,.1.58,4.89,4.89,0,0,1-1.14,3.06c-1.3,1.69-3.19,2.41-4.22,1.62s-.81-2.81.49-4.5A4.9,4.9,0,0,1,40.62,63c2.25-3.61,15.87-25.42,24.71-39.48A35.36,35.36,0,1,0,83.5,39.86L48.63,69.93a4.77,4.77,0,0,1-1.3,3.18C45.93,74.72,44,75.33,43,74.47s-.64-2.85.75-4.46A4.55,4.55,0,0,1,47,68.27ZM25.1,60.43a1.43,1.43,0,0,1,1.47-1.37l7.59.28a1.42,1.42,0,1,1-.1,2.84l-7.59-.27A1.43,1.43,0,0,1,25.1,60.43Zm27.68,12.2h0a1.43,1.43,0,0,1,1.91.64l3.09,6.27a1.43,1.43,0,0,1-2.56,1.26l-3.09-6.27A1.43,1.43,0,0,1,52.78,72.63Zm-10.31,5.2s0,0,0-.06a1.39,1.39,0,0,1,.9-.5h0a1.49,1.49,0,0,1,.47,0H44a1.44,1.44,0,0,1,.33.16l.17.07a0,0,0,0,0,0,0l0,0,2.69,2.19.12-3.53a1.43,1.43,0,0,1,2.85.1l-.23,6.42a1.57,1.57,0,0,1,0,.3l0,.08a1.42,1.42,0,0,1-.23.44h0l0,0a1.42,1.42,0,0,1-1.15.52,1.4,1.4,0,0,1-1-.46l-3.6-2.94L40.71,85a1.41,1.41,0,0,1-1.57.49,1.44,1.44,0,0,1-1-1l-1.72-6-5.27,1.85a1.27,1.27,0,0,1-.28.06,1.41,1.41,0,0,1-.95,0h0a1.42,1.42,0,0,1-.86-1.82l2.17-6.09L27,70.27h0a.47.47,0,0,1-.09-.06,1.64,1.64,0,0,1-.37-.32h0A1.42,1.42,0,0,1,27,67.74l4.7-3.54a1.43,1.43,0,0,1,1.71,2.28L30.34,68.8l3,1.56.1,0a1.44,1.44,0,0,1,.91,1.09,1.37,1.37,0,0,1-.12,1l0,0-1.51,4.25,4.08-1.43a1.36,1.36,0,0,1,.35-.07,1.43,1.43,0,0,1,1.6,1L40.1,81Z" transform="translate(0.02)"/><path class="cls-2" d="M82.75,35.06l1-1a39.22,39.22,0,0,0-12-11l-.74,1.11A38,38,0,0,1,82.75,35.06Z" transform="translate(0.02)"/><path class="cls-3" d="M86.35,37.62l-1.08.93a37.26,37.26,0,1,1-19-16.93c.23-.37.46-.74.69-1.09A38.47,38.47,0,1,0,91.16,56.22,38.11,38.11,0,0,0,86.35,37.62Z" transform="translate(0.02)"/></g><rect id="border" class="cls-4" x="2.5" y="2.5" width="100" height="100" rx="12"/><g id="noise"><path id="noiseBottom" class="cls-5" d="M52.78,72.63h0a1.43,1.43,0,0,1,1.91.64l3.09,6.27a1.43,1.43,0,0,1-2.56,1.26l-3.09-6.27A1.43,1.43,0,0,1,52.78,72.63Z" transform="translate(0.02)"/><path id="noiseMiddle" class="cls-5" d="M42.47,77.83s0,0,0-.06a1.39,1.39,0,0,1,.9-.5h0a1.49,1.49,0,0,1,.47,0H44a1.44,1.44,0,0,1,.33.16l.17.07a0,0,0,0,0,0,0l0,0,2.69,2.19.12-3.53a1.43,1.43,0,0,1,2.85.1l-.23,6.42a1.57,1.57,0,0,1,0,.3l0,.08a1.42,1.42,0,0,1-.23.44h0l0,0a1.42,1.42,0,0,1-1.15.52,1.4,1.4,0,0,1-1-.46l-3.6-2.94L40.71,85a1.41,1.41,0,0,1-1.57.49,1.44,1.44,0,0,1-1-1l-1.72-6-5.27,1.85a1.27,1.27,0,0,1-.28.06,1.41,1.41,0,0,1-.95,0h0a1.42,1.42,0,0,1-.86-1.82l2.17-6.09L27,70.27h0a.47.47,0,0,1-.09-.06,1.64,1.64,0,0,1-.37-.32h0A1.42,1.42,0,0,1,27,67.74l4.7-3.54a1.43,1.43,0,0,1,1.71,2.28L30.34,68.8l3,1.56.1,0a1.44,1.44,0,0,1,.91,1.09,1.37,1.37,0,0,1-.12,1l0,0-1.51,4.25,4.08-1.43a1.36,1.36,0,0,1,.35-.07,1.43,1.43,0,0,1,1.6,1L40.1,81Z" transform="translate(0.02)"/><path id="noiseTop" class="cls-5" d="M25.1,60.43a1.43,1.43,0,0,1,1.47-1.37l7.59.28a1.42,1.42,0,1,1-.1,2.84l-7.59-.27A1.43,1.43,0,0,1,25.1,60.43Z" transform="translate(0.02)"/></g></svg>