<svg id="tamborine" xmlns="http://www.w3.org/2000/svg" xmlns:xlink="http://www.w3.org/1999/xlink" viewBox="0 0 105 105"><defs><style>.cls-1,.cls-2{fill:none;stroke-miterlimit:10;stroke-width:5px;}.cls-1{stroke:url(#linear-gradient);}.cls-2{stroke:url(#linear-gradient-2);}</style><linearGradient id="linear-gradient" x1="11.37" y1="52.59" x2="93.83" y2="52.59" gradientUnits="userSpaceOnUse"><stop offset="0" stop-color="#d2147e"/><stop offset="1" stop-color="#df4f67"/></linearGradient><linearGradient id="linear-gradient-2" x1="0" y1="52.5" x2="105" y2="52.5" xlink:href="#linear-gradient"/></defs><path id="tamborine-2" data-name="tamborine" class="cls-1" d="M82.22,44h-.1a30,30,0,0,0-2-4.85A9.1,9.1,0,1,0,67.26,26.32a29.51,29.51,0,0,0-5-2.06c0-.24,0-.47,0-.71a9.11,9.11,0,0,0-18.21,0c0,.24,0,.47,0,.71a29.51,29.51,0,0,0-5,2.07A9.1,9.1,0,1,0,26.42,39.11a30.28,30.28,0,0,0-1.57,3.53,9.1,9.1,0,1,0-1.88,18c.31,0,.62,0,.93,0A30.31,30.31,0,0,0,26,66.39,9.1,9.1,0,1,0,38.5,79.59,30.3,30.3,0,0,0,44.16,82a9.09,9.09,0,0,0,18.16,0,29.45,29.45,0,0,0,4.5-1.83A9.09,9.09,0,0,0,79.87,67.55a29.2,29.2,0,0,0,2.25-5.3h.1a9.11,9.11,0,1,0,0-18.21ZM73.79,23.69A9,9,0,0,1,80,39.07,30.41,30.41,0,0,0,67.39,26.38,8.93,8.93,0,0,1,73.79,23.69ZM79,39.92A9,9,0,0,1,66.54,27.4,29.15,29.15,0,0,1,79,39.92ZM44.28,23.55a9,9,0,0,1,17.93,0c0,.22,0,.44,0,.66a30.43,30.43,0,0,0-17.86,0C44.3,24,44.28,23.77,44.28,23.55Zm17.7,2a9,9,0,0,1-17.48,0,29.17,29.17,0,0,1,17.48,0ZM23.11,32a9,9,0,0,1,16-5.59A30.38,30.38,0,0,0,26.49,39,8.93,8.93,0,0,1,23.11,32Zm16.7-4.51A9,9,0,0,1,27.56,39.72,29.13,29.13,0,0,1,39.81,27.47ZM23,60.51a9,9,0,1,1,0-17.93,8.48,8.48,0,0,1,1.83.19A30,30,0,0,0,23,53.15a30.36,30.36,0,0,0,.89,7.31A8.69,8.69,0,0,1,23,60.51Zm1.29-7.36a28.94,28.94,0,0,1,1.78-10,9,9,0,0,1-.9,17.1A29,29,0,0,1,24.26,53.15Zm7.67,29.11a9,9,0,0,1-5.85-15.75,30.45,30.45,0,0,0,12.29,13A9,9,0,0,1,31.93,82.26Zm-4.8-16.53A9,9,0,0,1,39.21,78.51,29.09,29.09,0,0,1,27.13,65.73ZM53.24,90.59a9,9,0,0,1-8.94-8.51,30.49,30.49,0,0,0,17.88,0A9,9,0,0,1,53.24,90.59Zm-8.92-9.87a9,9,0,0,1,17.84,0,28.92,28.92,0,0,1-17.84,0Zm21.74-1.58a9,9,0,0,1,12.78-12.4A29.06,29.06,0,0,1,66.06,79.14Zm16-5.5A9,9,0,0,1,67,80.14,30.34,30.34,0,0,0,79.8,67.68,8.9,8.9,0,0,1,82.08,73.64Zm-3.17-7a9.1,9.1,0,0,0-13,12.6,28.7,28.7,0,0,1-3.63,1.47,9.1,9.1,0,0,0-18.11,0,29.58,29.58,0,0,1-4.86-2.1,9.09,9.09,0,0,0-12.26-13,28.72,28.72,0,0,1-1.9-5.24A9.09,9.09,0,0,0,26.09,43a28.92,28.92,0,0,1,1.41-3.16A9.09,9.09,0,0,0,39.93,27.4a28.82,28.82,0,0,1,4.44-1.84,9.1,9.1,0,0,0,17.75,0,27.83,27.83,0,0,1,4.29,1.77A9.09,9.09,0,0,0,79.09,40a29.4,29.4,0,0,1,1.71,4.13,9.09,9.09,0,0,0,0,18A29.06,29.06,0,0,1,78.91,66.61ZM80.84,44.3a29,29,0,0,1,0,17.69,9,9,0,0,1,0-17.69Zm1.38,17.81h0a30.41,30.41,0,0,0,0-17.92h0a9,9,0,1,1,0,17.93Z" transform="translate(-0.1 -0.08)"/><rect id="boarder" class="cls-2" x="2.5" y="2.5" width="100" height="100" rx="12"/></svg>