<svg xmlns="http://www.w3.org/2000/svg" xmlns:xlink="http://www.w3.org/1999/xlink" viewBox="0 0 105 105"><defs><style>.cls-1{fill:url(#linear-gradient);}.cls-2{fill:url(#linear-gradient-2);}.cls-3{fill:url(#linear-gradient-3);}.cls-4{fill:url(#linear-gradient-4);}.cls-5{fill:url(#linear-gradient-5);}.cls-6{fill:none;stroke-miterlimit:10;stroke-width:5px;stroke:url(#linear-gradient-6);}</style><linearGradient id="linear-gradient" x1="73.63" y1="21.32" x2="76.18" y2="21.32" gradientUnits="userSpaceOnUse"><stop offset="0" stop-color="#d9e021"/><stop offset="1" stop-color="#009245"/></linearGradient><linearGradient id="linear-gradient-2" x1="70.99" y1="24.21" x2="73.55" y2="24.21" xlink:href="#linear-gradient"/><linearGradient id="linear-gradient-3" x1="79.95" y1="27.64" x2="82.39" y2="27.64" xlink:href="#linear-gradient"/><linearGradient id="linear-gradient-4" x1="77.37" y1="30.29" x2="79.82" y2="30.29" xlink:href="#linear-gradient"/><linearGradient id="linear-gradient-5" x1="15.28" y1="52.9" x2="84.66" y2="52.9" xlink:href="#linear-gradient"/><linearGradient id="linear-gradient-6" x1="-0.21" y1="52.49" x2="104.79" y2="52.49" xlink:href="#linear-gradient"/></defs><title>Artboard 5</title><g id="Guitar_1" data-name="Guitar 1"><path class="cls-1" d="M74.91,22.5c.26-.11.36-.47.31-.88.46,0,.85-.1.94-.38s-.32-.83-1-1a1.38,1.38,0,0,0-1.24.08h0c-.35.15-.43.77-.17,1.38S74.55,22.66,74.91,22.5Z"/><path class="cls-2" d="M72.28,25.39c.25-.11.36-.46.3-.88.47,0,.86-.1,1-.38s-.32-.83-1-1a1.41,1.41,0,0,0-1.24.08h0c-.36.15-.43.77-.17,1.38S71.92,25.55,72.28,25.39Z"/><path class="cls-3" d="M81.08,26.41c-.27.11-.36.51-.27,1-.42,0-.76.13-.84.4s.31.83.94,1,1.25.05,1.36-.33h0a1.41,1.41,0,0,0,0-1.23C81.94,26.63,81.43,26.25,81.08,26.41Z"/><path class="cls-4" d="M78.5,29.06c-.26.12-.36.52-.26,1-.42,0-.77.14-.85.4s.31.84,1,1,1.25.05,1.36-.32h0a1.4,1.4,0,0,0-.06-1.24C79.37,29.28,78.86,28.9,78.5,29.06Z"/><path class="cls-5" d="M84.2,18.75c-1-.89-1.64-.49-2.48,0a2,2,0,0,1-1.62.38c-.45,0-1.43.46-1.53,1a2.48,2.48,0,0,1-.65,1.46L61,37.14a2.31,2.31,0,0,1-2.56.37A13.31,13.31,0,0,0,57,36.94l0,0c-2-.88-6.77-1.42-7.37-1.48h-.07c-2.61-.23-4.87.32-6.11,1.53A11.75,11.75,0,0,0,41.37,39a10.56,10.56,0,0,0-1.9,3.59h0a5.38,5.38,0,0,1-1.94,1.16l0,0c-.67.25-1.12.71-1.12,1.23a1,1,0,0,0,.26.64h0a2,2,0,0,0,.87.59c1.6,1.33.07,2.22.07,2.22L35.4,50.32c-2.69,2.47-3.65,2.52-4.65,2.43l-.21,0-.24,0a2,2,0,0,1-1.53-.78l-.06-.08,0,0h0a1.23,1.23,0,0,0-1-.6,1.43,1.43,0,0,0-1.2,1,2.35,2.35,0,0,1-1.33,1.31,16,16,0,0,0-3.76,1.93c-5.26,3.61-7.55,9.43-5.27,13.18a30.73,30.73,0,0,0,4.57,8.06,2.27,2.27,0,0,1-.06,2.85L17,83.82s-1,1.2-.29,2.08,2-.33,2-.33l4.09-3.44a2.29,2.29,0,0,1,3,.07c3.14,2.83,6.28,4.63,8.66,5,3.56,1.21,8.5-.68,12-4.91a15.92,15.92,0,0,0,2.76-4.79,2.32,2.32,0,0,1,1.23-1.29,1.46,1.46,0,0,0,1-1.29,1.15,1.15,0,0,0-.46-.81h0a3.42,3.42,0,0,1-1.09-1.59h0c0-.12,0-.23-.05-.34s0,0,0,0c-.21-1.52,2.53-6.31,4.17-7.17a2.23,2.23,0,0,1,2.77.57l0,0h0a1.43,1.43,0,0,0,1.44.6c.51-.16.8-.76.83-1.51v0c.15-.81,1.68-2.13,1.68-2.13h0a12.2,12.2,0,0,0,1.76-.84,10.88,10.88,0,0,0,1.2-.8c2.34-.85,3.68-4.46,3.27-8.67v-.06a37,37,0,0,0-1-6.31h0a9.15,9.15,0,0,0-1.51-3.26h0L81.09,24.85c.5-.54.57-.79,1.3-.74.52,0,1.69-.52,1.61-1.4a2.68,2.68,0,0,1,.28-1.5C84.52,20.38,85.05,19.53,84.2,18.75ZM54.66,46.46C67.57,33.61,77.84,23.14,78,23.33S67.92,34.1,55,47C43.33,58.57,33.61,68.15,31.7,69.72a.5.5,0,0,1-.41.14s0-.17.13-.35C33,67.7,42.94,58.13,54.66,46.46Zm-25,11.08a.3.3,0,0,0,0-.1.37.37,0,0,0,0-.09h0a1.26,1.26,0,0,1,1.1-.66,1.25,1.25,0,0,1,1,2,0,0,0,0,0,0,0c-.05.48.37.63,1.1.31a21.6,21.6,0,0,0,3.45-2.94c1.54-1.4,3.21-2.41,4.66-2.22s1.65,2.38,1.65,2.38a1.29,1.29,0,1,1-2.58,0,1.26,1.26,0,0,1,.11-.51h0c.11-.51-1.16.51-1.16.51s-3.28,2.81-4.2,3.65-4.41,2.64-5.18.79A4.36,4.36,0,0,1,29.65,57.54Zm4,18.12a.92.92,0,0,1-.7-.33h0l-5.67-5.66,0,0a.87.87,0,0,1-.24-.6.93.93,0,0,1,.93-.93.87.87,0,0,1,.6.24l0,0L34.27,74h0a.92.92,0,0,1,.33.7A.93.93,0,0,1,33.66,75.66Zm13-9.28a22.46,22.46,0,0,0-3.06,3.34c-.35.72-.21,1.15.27,1.12h0a1.25,1.25,0,0,1,.76-.24,1.27,1.27,0,0,1,.54,2.4v0l-.1,0-.1,0a4.32,4.32,0,0,1-3.17-.19c-1.83-.84.09-4.26,1-5.15s3.8-4.07,3.8-4.07,1.06-1.22.55-1.13h0a1.29,1.29,0,1,1-.42-2.49s2.19.28,2.32,1.74S48.06,64.9,46.61,66.38ZM56.43,48C44.76,59.6,35,69.18,33.12,70.75a.5.5,0,0,1-.41.14s0-.17.13-.35c1.57-1.81,11.52-11.38,23.25-23.05C69,34.64,79.27,24.17,79.46,24.36S69.34,35.13,56.43,48Z"/></g><g id="Layer_1" data-name="Layer 1"><rect class="cls-6" x="2.29" y="2.49" width="100" height="100" rx="12"/></g></svg>