<svg xmlns="http://www.w3.org/2000/svg" xmlns:xlink="http://www.w3.org/1999/xlink" viewBox="0 0 105 105"><defs><style>.cls-1{fill:url(#linear-gradient);}.cls-2{fill:url(#linear-gradient-2);}.cls-3{fill:url(#linear-gradient-3);}.cls-4{fill:url(#linear-gradient-4);}.cls-5{fill:url(#linear-gradient-5);}.cls-6{fill:url(#linear-gradient-6);}.cls-7{fill:url(#linear-gradient-7);}.cls-8{fill:url(#linear-gradient-8);}.cls-9{fill:url(#linear-gradient-9);}.cls-10{fill:url(#linear-gradient-10);}.cls-11{fill:url(#linear-gradient-11);}.cls-12{fill:url(#linear-gradient-12);}.cls-13{fill:url(#linear-gradient-13);}.cls-14{fill:url(#linear-gradient-14);}.cls-15{fill:none;stroke-miterlimit:10;stroke-width:5px;stroke:url(#linear-gradient-15);}</style><linearGradient id="linear-gradient" x1="55.36" y1="46.86" x2="46.91" y2="21.4" gradientUnits="userSpaceOnUse"><stop offset="0" stop-color="#29abe2"/><stop offset="1" stop-color="#22b573"/></linearGradient><linearGradient id="linear-gradient-2" x1="55.36" y1="45.79" x2="46.92" y2="20.36" gradientTransform="matrix(1, 0, 0, -1, 0, 107.55)" xlink:href="#linear-gradient"/><linearGradient id="linear-gradient-3" x1="56.43" y1="53.57" x2="48.06" y2="28.34" xlink:href="#linear-gradient"/><linearGradient id="linear-gradient-4" x1="55.83" y1="72.27" x2="47.77" y2="48" gradientTransform="matrix(1, 0, 0, -1, 0, 107.55)" xlink:href="#linear-gradient"/><linearGradient id="linear-gradient-5" x1="64.36" y1="77.47" x2="64.33" y2="77.4" xlink:href="#linear-gradient"/><linearGradient id="linear-gradient-6" x1="49.21" y1="79.77" x2="42.28" y2="58.91" xlink:href="#linear-gradient"/><linearGradient id="linear-gradient-7" x1="75.82" y1="72.89" x2="75.76" y2="72.72" xlink:href="#linear-gradient"/><linearGradient id="linear-gradient-8" x1="72.87" y1="74.69" x2="67.32" y2="57.95" xlink:href="#linear-gradient"/><linearGradient id="linear-gradient-9" x1="61.44" y1="78.31" x2="55.21" y2="59.53" xlink:href="#linear-gradient"/><linearGradient id="linear-gradient-10" x1="82.3" y1="70.43" x2="76.61" y2="53.27" xlink:href="#linear-gradient"/><linearGradient id="linear-gradient-11" x1="52.28" y1="79.18" x2="52.21" y2="78.96" xlink:href="#linear-gradient"/><linearGradient id="linear-gradient-12" x1="38.66" y1="77.68" x2="31.04" y2="54.7" xlink:href="#linear-gradient"/><linearGradient id="linear-gradient-13" x1="28.67" y1="72" x2="21.98" y2="51.84" xlink:href="#linear-gradient"/><linearGradient id="linear-gradient-14" x1="29.08" y1="73.24" x2="28.88" y2="72.62" xlink:href="#linear-gradient"/><linearGradient id="linear-gradient-15" x1="-0.04" y1="52.3" x2="104.96" y2="52.3" xlink:href="#linear-gradient"/></defs><title>Artboard 10</title><g id="Snare_Drum" data-name="Snare Drum"><path class="cls-1" d="M52.54,27.61c12.74,0,22,4.54,29.55,10.37,0-10-16.81-15.8-29.55-15.8S22.41,27.94,22.41,38.39C30.31,32.63,39.8,27.61,52.54,27.61Z"/><path class="cls-2" d="M52.54,81c12.74,0,21.4-4.62,29.55-10.37,0,10-16.81,15.8-29.55,15.8S22.41,80.56,22.41,70.23C30.07,75.67,39.8,81,52.54,81Z"/><ellipse class="cls-3" cx="52.25" cy="40.96" rx="30.11" ry="11.58"/><path class="cls-4" d="M52.25,54.18c12.74,0,21.8-5.06,30.1-10.09,0,2-.26,5-.26,5-5.69,4.59-20.81,9.55-29.84,9.32A52.73,52.73,0,0,1,22.41,48.7a43.57,43.57,0,0,1-.28-4.84C29.8,49.3,39.5,54.18,52.25,54.18Z"/><path class="cls-5" d="M63.73,77.6c.41-.11.82-.21,1.23-.33Z"/><path class="cls-6" d="M41.33,59.37v4.17a2.32,2.32,0,0,1,1.56,2.18V71a2.33,2.33,0,0,1-1.56,2.18v4.56l-1.66-.35a46.34,46.34,0,0,0,11.69,1.64V74.22a2.33,2.33,0,0,1-1.42-2.13V66.77a2.33,2.33,0,0,1,1.4-2.12V60.4h.21l-.85,0h-.21a56.34,56.34,0,0,1-9.4-1.06Z"/><path class="cls-7" d="M75.32,73.06l.93-.51Z"/><path class="cls-8" d="M65,58.9l0,4.36A2.31,2.31,0,0,1,66.5,65.4v5.31a2.34,2.34,0,0,1-1.33,2.09l0,4.39a52.79,52.79,0,0,0,9.75-4V68.51a2.32,2.32,0,0,1-1.34-2.09V61.11A2.32,2.32,0,0,1,75,59V55.41A51.29,51.29,0,0,1,64.65,59Z"/><path class="cls-9" d="M53.12,74.22v4.84a45.81,45.81,0,0,0,10-1.3v-5a2.3,2.3,0,0,1-1.21-2V65.4a2.32,2.32,0,0,1,1.21-2v-4l.58-.12A56.19,56.19,0,0,1,52.6,60.4h.52v4.24a2.31,2.31,0,0,1,1.44,2.13v5.32A2.31,2.31,0,0,1,53.12,74.22Z"/><path class="cls-10" d="M81.54,51.64a45.61,45.61,0,0,1-4.84,2.91h0v4.4a2.32,2.32,0,0,1,1.53,2.17v5.31a2.31,2.31,0,0,1-1.53,2.17v3.69a64.88,64.88,0,0,0,5.53-3.52V51.64Z"/><path class="cls-11" d="M51.88,79.07h0Z"/><path class="cls-12" d="M39.55,73.09A2.32,2.32,0,0,1,38.26,71V65.72a2.31,2.31,0,0,1,1.29-2.06V59l.64.13a51.71,51.71,0,0,1-11.13-3.77l.44.21v3A2.33,2.33,0,0,1,31,60.75v5.31a2.3,2.3,0,0,1-1.49,2.15v5a46.83,46.83,0,0,0,10,4.17Z"/><path class="cls-13" d="M27.87,68.22a2.32,2.32,0,0,1-1.5-2.16V60.75a2.32,2.32,0,0,1,1.55-2.18l0-3.75.34.16a46.15,46.15,0,0,1-5.69-3.34s-.16,3.16-.29,7.15l-.07,9.66a65.66,65.66,0,0,0,5.62,3.82Z"/><path class="cls-14" d="M29.36,73.15l-.76-.44Z"/></g><g id="Layer_1" data-name="Layer 1"><rect class="cls-15" x="2.46" y="2.3" width="100" height="100" rx="12"/></g></svg>