<svg xmlns="http://www.w3.org/2000/svg" xmlns:xlink="http://www.w3.org/1999/xlink" viewBox="0 0 105 105"><defs><style>.cls-1,.cls-2,.cls-3,.cls-4,.cls-5,.cls-6,.cls-7,.cls-8{stroke-miterlimit:10;}.cls-1,.cls-2,.cls-3,.cls-4,.cls-5,.cls-6,.cls-7{stroke-width:4px;}.cls-1{fill:url(#linear-gradient);stroke:url(#linear-gradient-2);}.cls-2{fill:url(#linear-gradient-3);stroke:url(#linear-gradient-4);}.cls-3{fill:url(#linear-gradient-5);stroke:url(#linear-gradient-6);}.cls-4,.cls-5,.cls-6,.cls-7,.cls-8{fill:none;}.cls-4{stroke:url(#linear-gradient-7);}.cls-5{stroke:url(#linear-gradient-8);}.cls-6{stroke:url(#linear-gradient-9);}.cls-7{stroke:url(#linear-gradient-10);}.cls-8{stroke-width:5px;stroke:url(#linear-gradient-11);}</style><linearGradient id="linear-gradient" x1="62.74" y1="20.4" x2="64.82" y2="20.4" gradientTransform="translate(-3.43 -1.09)" gradientUnits="userSpaceOnUse"><stop offset="0" stop-color="#9e005d"/><stop offset="1" stop-color="#93278f"/></linearGradient><linearGradient id="linear-gradient-2" x1="59.87" y1="16.49" x2="67.69" y2="24.31" xlink:href="#linear-gradient"/><linearGradient id="linear-gradient-3" x1="57.77" y1="36.38" x2="59.86" y2="36.38" gradientTransform="translate(-8.16 -14.57)" xlink:href="#linear-gradient"/><linearGradient id="linear-gradient-4" x1="49.52" y1="18.46" x2="58.76" y2="27.69" gradientTransform="translate(21.7 -29.42) rotate(37.44)" xlink:href="#linear-gradient"/><linearGradient id="linear-gradient-5" x1="18.25" y1="6.12" x2="20.33" y2="6.12" gradientTransform="matrix(1, 0, 0, -1, 50.65, 28.29)" xlink:href="#linear-gradient"/><linearGradient id="linear-gradient-6" x1="70.95" y1="20.6" x2="75.9" y2="25.55" gradientTransform="translate(142.27 -4.14) rotate(142.56)" xlink:href="#linear-gradient"/><linearGradient id="linear-gradient-7" x1="33.37" y1="42.62" x2="56.16" y2="65.42" gradientTransform="translate(-0.77 3.72) scale(1.03 0.91)" xlink:href="#linear-gradient"/><linearGradient id="linear-gradient-8" x1="25.14" y1="44.6" x2="47.88" y2="67.34" gradientTransform="translate(3.11 11.8) scale(1.03 0.87)" xlink:href="#linear-gradient"/><linearGradient id="linear-gradient-9" x1="16.85" y1="47.96" x2="39.48" y2="70.59" gradientTransform="translate(7.49 21.76) scale(1.03 0.78)" xlink:href="#linear-gradient"/><linearGradient id="linear-gradient-10" x1="24.21" y1="23.07" x2="74.46" y2="73.32" gradientTransform="translate(-5.48 6.17) rotate(-6.42)" xlink:href="#linear-gradient"/><linearGradient id="linear-gradient-11" x1="-0.21" y1="52.49" x2="104.79" y2="52.49" gradientTransform="matrix(1, 0, 0, 1, 0, 0)" xlink:href="#linear-gradient"/></defs><title>Artboard 3</title><g id="Snap"><rect class="cls-1" x="59.31" y="14.76" width="2.09" height="9.12" rx="1.04" transform="translate(0.36 -1.1) rotate(1.05)"/><rect class="cls-2" x="49.61" y="17.25" width="2.09" height="9.12" rx="1.04" transform="matrix(0.81, -0.59, 0.59, 0.81, -3.06, 34.31)"/><rect class="cls-3" x="68.9" y="17.6" width="2.09" height="9.12" rx="1.04" transform="translate(110.9 83.04) rotate(-141.52)"/><rect class="cls-4" x="41.03" y="36.54" width="8.46" height="33.22" rx="3.8" transform="translate(-24.51 55.39) rotate(-51.42)"/><rect class="cls-5" x="36.42" y="44.59" width="8.46" height="31.48" rx="3.8" transform="translate(-31.86 54.48) rotate(-51.42)"/><rect class="cls-6" x="32.22" y="53.81" width="8.46" height="28.29" rx="3.8" transform="translate(-39.4 54.07) rotate(-51.42)"/><path class="cls-7" d="M63.47,83.88s-4.93,7.09-11.25,2-26.49-21-26.49-21-2.67-2.53-.61-5.35S29.65,57.27,31,58.2c0,0-5.61-3-2.93-7.35,0,0,2.31-3.82,5.88-1.27,0,0-4.71-2.72-1.94-6.46,0,0,2.29-3.69,5.88-1.26L24.9,31.5s-2.94-2.85-.65-5.78a4.08,4.08,0,0,1,6-.94L58.82,47.56A3.72,3.72,0,0,0,62,48.7c2.1-.18,2.19-1.05,3.13-2.24l6.81-8.53s3.58-3.49,6.37-.72S80,42.38,79,43.58l-7.08,8.87s-1.28.84.31,3.84a59.08,59.08,0,0,1,3.11,7.6,7.48,7.48,0,0,1-.72,6C72.82,72.66,63.47,83.88,63.47,83.88Z"/></g><g id="Layer_1" data-name="Layer 1"><rect class="cls-8" x="2.29" y="2.49" width="100" height="100" rx="12"/></g></svg>