<svg id="snap" xmlns="http://www.w3.org/2000/svg" xmlns:xlink="http://www.w3.org/1999/xlink" viewBox="0 0 105 105"><defs><style>.cls-1,.cls-2,.cls-3,.cls-4,.cls-5,.cls-6,.cls-7{fill:none;stroke-miterlimit:10;stroke-width:5px;}.cls-1{stroke:url(#linear-gradient);}.cls-2{stroke:url(#linear-gradient-2);}.cls-3{stroke:url(#linear-gradient-3);}.cls-4{stroke:#d2157c;}.cls-5{stroke:url(#linear-gradient-4);}.cls-6{stroke:url(#linear-gradient-5);}.cls-7{stroke:url(#linear-gradient-6);}</style><linearGradient id="linear-gradient" x1="56.55" y1="19.39" x2="63.76" y2="19.39" gradientTransform="translate(-0.34 1.1) rotate(-1.05)" gradientUnits="userSpaceOnUse"><stop offset="0" stop-color="#d2147e"/><stop offset="1" stop-color="#df4f67"/></linearGradient><linearGradient id="linear-gradient-2" x1="44.83" y1="21.89" x2="56.09" y2="21.89" gradientTransform="translate(22.82 -25.67) rotate(36.39)" xlink:href="#linear-gradient"/><linearGradient id="linear-gradient-3" x1="64.02" y1="22.24" x2="75.48" y2="22.24" gradientTransform="translate(138.18 -3.75) rotate(141.52)" xlink:href="#linear-gradient"/><linearGradient id="linear-gradient-4" x1="21.6" y1="69.29" x2="53.65" y2="69.29" gradientTransform="matrix(1, 0, 0, 1, 0, 0)" xlink:href="#linear-gradient"/><linearGradient id="linear-gradient-5" x1="21.1" y1="55.86" x2="82.77" y2="55.86" gradientTransform="matrix(1, 0, 0, 1, 0, 0)" xlink:href="#linear-gradient"/><linearGradient id="linear-gradient-6" x1="0" y1="52.5" x2="105" y2="52.5" gradientTransform="matrix(1, 0, 0, 1, 0, 0)" xlink:href="#linear-gradient"/></defs><rect id="soundCenter" class="cls-1" x="59.11" y="14.83" width="2.09" height="9.12" rx="1.04" transform="translate(0.35 -1.16) rotate(1.05)"/><rect id="soundLeft" class="cls-2" x="49.42" y="17.33" width="2.09" height="9.12" rx="1.04" transform="translate(-3.16 34.14) rotate(-36.39)"/><rect id="soundRight" class="cls-3" x="68.7" y="17.68" width="2.09" height="9.12" rx="1.04" transform="translate(110.49 82.99) rotate(-141.52)"/><path class="cls-4" d="M32.05,43.2a4.65,4.65,0,0,1,3.3-2.08,3.8,3.8,0,0,0-3.18,1.42l-.53.66a3.82,3.82,0,0,0,.6,5.34l.63.51a4,4,0,0,1,.88.61C33.11,49.25,29.52,46.62,32.05,43.2Z" transform="translate(-0.01 -0.07)"/><path class="cls-4" d="M28.29,50.92a4.91,4.91,0,0,1,2.8-2.07,3.76,3.76,0,0,0-2.68,1.41l-.53.66a3.83,3.83,0,0,0,.6,5.35l2,1.6a2.44,2.44,0,0,1,.28.14C29.5,57.19,26.08,54.55,28.29,50.92Z" transform="translate(-0.01 -0.07)"/><path class="cls-5" d="M25.34,59.54a4.29,4.29,0,0,1,3.59-2,3.81,3.81,0,0,0-3.47,1.39l-.53.66a3.83,3.83,0,0,0,.6,5.35L41.7,77.79a3.79,3.79,0,0,0,1.46.7C35.22,72.19,26,64.89,26,64.89S23.28,62.36,25.34,59.54Z" transform="translate(-0.01 -0.07)"/><path class="cls-6" d="M72.14,52.52l7.08-8.87c1-1.19,2.07-3.59-.72-6.36s-6.37.71-6.37.71l-6.81,8.54c-.95,1.19-1,2.06-3.13,2.23A3.73,3.73,0,0,1,59,47.64L30.48,24.86a4.08,4.08,0,0,0-6,.94c-2.29,2.92.65,5.78.65,5.78L38,42.15a4.21,4.21,0,0,0-2.43-1,3.77,3.77,0,0,1,2.16.81l20,16a3.81,3.81,0,0,1,.6,5.35l-.53.66a3.8,3.8,0,0,1-5.34.6L33.05,49.05a3.35,3.35,0,0,0-2-.2,3.76,3.76,0,0,1,2.66.81L52.42,64.54a3.83,3.83,0,0,1,.6,5.35l-.53.66a3.81,3.81,0,0,1-5.35.6L30.49,57.87a4.12,4.12,0,0,0-1.56-.38,3.78,3.78,0,0,1,1.87.79L47,71.18a3.82,3.82,0,0,1,.6,5.34l-.53.66a3.8,3.8,0,0,1-3.89,1.31c3.78,3,7.25,5.77,9.28,7.42,6.31,5.14,11.25-2,11.25-2s9.35-11.23,11.15-14a7.46,7.46,0,0,0,.72-6,59,59,0,0,0-3.11-7.61C70.86,53.36,72.14,52.52,72.14,52.52Z" transform="translate(-0.01 -0.07)"/><rect id="border" class="cls-7" x="2.5" y="2.5" width="100" height="100" rx="12"/></svg>