<svg xmlns="http://www.w3.org/2000/svg" xmlns:xlink="http://www.w3.org/1999/xlink" viewBox="0 0 105 105"><defs><style>.cls-1{fill:url(#linear-gradient);}.cls-2{fill:url(#linear-gradient-2);}.cls-3{fill:url(#linear-gradient-3);}.cls-4{fill:url(#linear-gradient-4);}.cls-5{fill:url(#linear-gradient-5);}.cls-6{fill:url(#linear-gradient-6);}.cls-7{fill:url(#linear-gradient-7);}.cls-8{fill:none;stroke-miterlimit:10;stroke-width:5px;stroke:url(#linear-gradient-8);}</style><linearGradient id="linear-gradient" x1="28.85" y1="18.95" x2="53.39" y2="18.95" gradientUnits="userSpaceOnUse"><stop offset="0" stop-color="#29abe2"/><stop offset="1" stop-color="#902b92"/><stop offset="1" stop-color="#93278f"/></linearGradient><linearGradient id="linear-gradient-2" x1="27.32" y1="26.76" x2="53.69" y2="26.76" xlink:href="#linear-gradient"/><linearGradient id="linear-gradient-3" x1="27.52" y1="32.33" x2="53.34" y2="32.33" xlink:href="#linear-gradient"/><linearGradient id="linear-gradient-4" x1="28.88" y1="63.22" x2="71.54" y2="63.22" xlink:href="#linear-gradient"/><linearGradient id="linear-gradient-5" x1="55.55" y1="40.45" x2="78.46" y2="40.45" xlink:href="#linear-gradient"/><linearGradient id="linear-gradient-6" x1="50.73" y1="46.46" x2="76.83" y2="46.46" xlink:href="#linear-gradient"/><linearGradient id="linear-gradient-7" x1="49.04" y1="51.28" x2="74.32" y2="51.28" xlink:href="#linear-gradient"/><linearGradient id="linear-gradient-8" x1="-0.21" y1="52.49" x2="104.79" y2="52.49" gradientUnits="userSpaceOnUse"><stop offset="0" stop-color="#29abe2"/><stop offset="1" stop-color="#93278f"/></linearGradient></defs><title>Artboard 2</title><g id="Shakers"><path class="cls-1" d="M42.85,19.5a17.59,17.59,0,0,1,10.54,4.81c-1.31-5.8-5.29-10.15-10.54-10.68-5.86-.58-11.47,3.78-14,10.29A18.53,18.53,0,0,1,42.85,19.5Z"/><path class="cls-2" d="M43.32,25a17.49,17.49,0,0,1,10.34,4.65,18.27,18.27,0,0,0,0-2.22,17.44,17.44,0,0,0-10.95-5.26,18.47,18.47,0,0,0-15,5.38c-.08.38-.16.77-.21,1.16a20.09,20.09,0,0,0-.17,2.77A18.37,18.37,0,0,1,43.32,25Z"/><path class="cls-3" d="M43.71,30.81a17.69,17.69,0,0,1,9.1,3.58,20,20,0,0,0,.53-2.09,17.64,17.64,0,0,0-10-4.36,18.42,18.42,0,0,0-15.8,6.24,18.31,18.31,0,0,0,.59,2.63A18.4,18.4,0,0,1,43.71,30.81Z"/><path class="cls-4" d="M65.47,52.89A19.56,19.56,0,0,0,48.74,53a11,11,0,0,0,2.49,7.51L40.38,78.1a1.55,1.55,0,0,0,0-.23l2.71-32.3a16.31,16.31,0,0,0,9-9.49,18,18,0,0,0-7.94-2.75,18.45,18.45,0,0,0-15.36,5.72,12.69,12.69,0,0,0,5.85,6.16L32.25,77.72s-.07,2.12,3.93,2.58a4.13,4.13,0,0,0,3.3-.73l-5.7,9.23s-1.07,1.92,2.36,3.75,5-.72,5-.72l17.57-28c4.26.05,9-2,12.8-5.7A15.39,15.39,0,0,0,65.47,52.89ZM35.7,75.52a.7.7,0,0,1-.79.6.68.68,0,0,1-.7-.68l2.08-26.57a.73.73,0,0,1,.8-.6.68.68,0,0,1,.69.69ZM52.85,65.35,37.39,88.41a.81.81,0,0,1-1,.24.59.59,0,0,1-.27-.88L51.55,64.71a.81.81,0,0,1,1-.24A.6.6,0,0,1,52.85,65.35Z"/><path class="cls-5" d="M73.1,34.29c-5.14-2.51-12.28-.38-17.55,4.77a19.33,19.33,0,0,1,14.89.63,14.91,14.91,0,0,1,7.53,8C79.4,41.88,77.69,36.53,73.1,34.29Z"/><path class="cls-6" d="M69.11,42.08A19.5,19.5,0,0,0,52.86,42c-.25.33-.49.66-.72,1a23,23,0,0,0-1.41,2.48A19.65,19.65,0,0,1,68.4,44.9a15,15,0,0,1,7.43,7.75c.37-.68.71-1.36,1-2A14.89,14.89,0,0,0,69.11,42.08Z"/><path class="cls-7" d="M67.06,47.62a19.65,19.65,0,0,0-17.37.45A18.55,18.55,0,0,0,49,50.69a19.58,19.58,0,0,1,17.08-.29,15.16,15.16,0,0,1,6.77,6.35c.49-.56,1-1.14,1.43-1.75A15.06,15.06,0,0,0,67.06,47.62Z"/></g><g id="Layer_1" data-name="Layer 1"><rect class="cls-8" x="2.29" y="2.49" width="100" height="100" rx="12"/></g></svg>