<svg id="Layer_1" data-name="Layer 1" xmlns="http://www.w3.org/2000/svg" xmlns:xlink="http://www.w3.org/1999/xlink" viewBox="0 0 105 105"><defs><style>.cls-1{fill:url(#linear-gradient);}.cls-2{fill:url(#linear-gradient-2);}.cls-3{fill:url(#linear-gradient-3);}.cls-4{fill:url(#linear-gradient-4);}.cls-5{fill:url(#linear-gradient-5);}.cls-6{fill:url(#linear-gradient-6);}.cls-7{fill:url(#linear-gradient-7);}.cls-8{fill:url(#linear-gradient-8);}.cls-9{fill:url(#linear-gradient-9);}.cls-10{fill:url(#linear-gradient-10);}.cls-11{fill:url(#linear-gradient-11);}.cls-12{fill:url(#linear-gradient-12);}.cls-13{fill:url(#linear-gradient-13);}.cls-14{fill:url(#linear-gradient-14);}.cls-15{fill:none;stroke-miterlimit:10;stroke-width:5px;stroke:url(#linear-gradient-15);}</style><linearGradient id="linear-gradient" x1="27.64" y1="55.04" x2="28.79" y2="55.04" gradientTransform="matrix(1, 0, 0, -1, 0, 106)" gradientUnits="userSpaceOnUse"><stop offset="0" stop-color="#29abe2"/><stop offset="0.15" stop-color="#29acda"/><stop offset="0.39" stop-color="#27aec5"/><stop offset="0.67" stop-color="#25b1a3"/><stop offset="1" stop-color="#22b573"/></linearGradient><linearGradient id="linear-gradient-2" x1="65.55" y1="41.02" x2="69.9" y2="41.02" xlink:href="#linear-gradient"/><linearGradient id="linear-gradient-3" x1="71.4" y1="43.56" x2="76.23" y2="43.56" xlink:href="#linear-gradient"/><linearGradient id="linear-gradient-4" x1="52.98" y1="38.76" x2="57.71" y2="38.76" xlink:href="#linear-gradient"/><linearGradient id="linear-gradient-5" x1="34.5" y1="40.66" x2="38.85" y2="40.66" xlink:href="#linear-gradient"/><linearGradient id="linear-gradient-6" x1="59.21" y1="39.55" x2="64.05" y2="39.55" xlink:href="#linear-gradient"/><linearGradient id="linear-gradient-7" x1="28.17" y1="43.21" x2="33" y2="43.21" xlink:href="#linear-gradient"/><linearGradient id="linear-gradient-8" x1="77.73" y1="48.22" x2="81.63" y2="48.22" xlink:href="#linear-gradient"/><linearGradient id="linear-gradient-9" x1="46.68" y1="38.78" x2="51.49" y2="38.78" xlink:href="#linear-gradient"/><linearGradient id="linear-gradient-10" x1="22.75" y1="47.95" x2="26.67" y2="47.95" xlink:href="#linear-gradient"/><linearGradient id="linear-gradient-11" x1="40.35" y1="39.32" x2="45.19" y2="39.32" xlink:href="#linear-gradient"/><linearGradient id="linear-gradient-12" x1="23.21" y1="29.43" x2="81.69" y2="29.43" xlink:href="#linear-gradient"/><linearGradient id="linear-gradient-13" x1="23.22" y1="63.16" x2="81.68" y2="63.16" xlink:href="#linear-gradient"/><linearGradient id="linear-gradient-14" x1="25.31" y1="63.1" x2="79.35" y2="63.1" gradientTransform="matrix(1, 0, 0, -1, 0.04, 106.2)" xlink:href="#linear-gradient"/><linearGradient id="linear-gradient-15" x1="-0.04" y1="53.7" x2="104.96" y2="53.7" gradientTransform="matrix(1, 0, 0, -1, 0.04, 106.2)" gradientUnits="userSpaceOnUse"><stop offset="0" stop-color="#29abe2"/><stop offset="1" stop-color="#22b573"/></linearGradient></defs><title>song8</title><g id="REDO_Snare_Drum_1" data-name="REDO Snare Drum 1"><path class="cls-1" d="M27.64,50.53a13.76,13.76,0,0,0,1.15.86C28.37,51.09,28,50.8,27.64,50.53Z" transform="translate(0.04 0.2)"/><path class="cls-2" d="M69.9,55.69a36.45,36.45,0,0,1-4.35,1.22V74.27c1.53-.42,3-.88,4.35-1.35Z" transform="translate(0.04 0.2)"/><path class="cls-3" d="M76.23,52.49a22.88,22.88,0,0,1-4.83,2.64V72.39c1.81-.67,3.44-1.34,4.83-2Z" transform="translate(0.04 0.2)"/><path class="cls-4" d="M57.71,58c-1.48.09-3.06.14-4.73.14V76.48c1.61-.11,3.19-.29,4.73-.52Z" transform="translate(0.04 0.2)"/><path class="cls-5" d="M38.85,56.69a38.57,38.57,0,0,1-4.35-1.25V73.93a44.37,44.37,0,0,0,4.35,1.31Z" transform="translate(0.04 0.2)"/><path class="cls-6" d="M64.05,57.2c-1.49.27-3.1.48-4.84.64V75.71c1.67-.29,3.29-.64,4.84-1Z" transform="translate(0.04 0.2)"/><path class="cls-7" d="M28.17,71.19A47.63,47.63,0,0,0,33,73.38V54.86a23.42,23.42,0,0,1-4.83-2.66Z" transform="translate(0.04 0.2)"/><path class="cls-8" d="M77.73,51.29V69.74c2.47-1.16,3.9-2,3.9-2V45.83A14.35,14.35,0,0,1,77.73,51.29Z" transform="translate(0.04 0.2)"/><path class="cls-9" d="M51.49,58.08c-1.7,0-3.3-.11-4.81-.23V76.49a44.2,44.2,0,0,0,4.46.08h.35Z" transform="translate(0.04 0.2)"/><path class="cls-10" d="M26.67,51a14.16,14.16,0,0,1-3.79-5.17l-.13-.12.4,22.41a33.39,33.39,0,0,0,3.52,2.26Z" transform="translate(0.04 0.2)"/><path class="cls-11" d="M45.19,57.71c-1.74-.18-3.36-.41-4.84-.7V75.59c1.6.34,3.21.59,4.84.77Z" transform="translate(0.04 0.2)"/><path class="cls-12" d="M23.21,69.57A45.33,45.33,0,0,0,51.2,78c16.65-.64,30.49-8.84,30.49-8.84l-.15,3.68a4.36,4.36,0,0,1-2,3.48c-3.84,2.47-13.43,7.53-28,7.65-13.37.11-21.77-4.16-25.69-6.81a6,6,0,0,1-2.63-5Z" transform="translate(0.04 0.2)"/><path class="cls-13" d="M52.45,29C36.3,29,23.22,35.16,23.22,42.82S36.3,56.69,52.45,56.69s29.23-6.21,29.23-13.87S68.59,29,52.45,29Zm-.12,26.74C36.67,55.69,24,50,24,42.9S36.7,30.1,52.36,30.1s28.36,5.73,28.36,12.8S68,55.69,52.33,55.69Z" transform="translate(0.04 0.2)"/><ellipse class="cls-14" cx="52.37" cy="43.1" rx="27.02" ry="12.19"/></g><g id="Layer_1-2" data-name="Layer 1"><rect class="cls-15" x="2.5" y="2.5" width="100" height="100" rx="12"/></g></svg>