<svg id="Layer_1" data-name="Layer 1" xmlns="http://www.w3.org/2000/svg" xmlns:xlink="http://www.w3.org/1999/xlink" viewBox="0 0 105 105"><defs><style>.cls-1{fill:url(#linear-gradient);}.cls-2{fill:url(#linear-gradient-2);}.cls-3{fill:url(#linear-gradient-3);}.cls-4{fill:none;stroke-miterlimit:10;stroke-width:5px;stroke:url(#linear-gradient-4);}</style><linearGradient id="linear-gradient" x1="17.25" y1="49.81" x2="87.58" y2="49.81" gradientTransform="matrix(1, 0, 0, -1, 0, 106)" gradientUnits="userSpaceOnUse"><stop offset="0" stop-color="#29abe2"/><stop offset="1" stop-color="#93278f"/></linearGradient><linearGradient id="linear-gradient-2" x1="71.03" y1="77.13" x2="83.72" y2="77.13" gradientTransform="matrix(1, 0, 0, -1, 0, 106)" gradientUnits="userSpaceOnUse"><stop offset="0" stop-color="#7c43a1"/><stop offset="1" stop-color="#93278f"/></linearGradient><linearGradient id="linear-gradient-3" x1="13.76" y1="49.94" x2="91.14" y2="49.94" xlink:href="#linear-gradient"/><linearGradient id="linear-gradient-4" x1="-0.04" y1="53.7" x2="104.96" y2="53.7" gradientTransform="matrix(1, 0, 0, -1, 0.04, 106.2)" xlink:href="#linear-gradient"/></defs><title>song15</title><g id="Snare_Drum_2" data-name="Snare Drum 2"><path class="cls-1" d="M47,68.07C49.13,66,68.53,47.34,80.91,35.53A35.37,35.37,0,0,0,69.7,25.45l-27,38.49a2.29,2.29,0,0,1,.11.58,5,5,0,0,1-1.14,3.06c-1.3,1.69-3.19,2.42-4.23,1.62s-.81-2.81.49-4.5a4.9,4.9,0,0,1,2.71-1.88c2.25-3.6,15.86-25.42,24.71-39.48A35.4,35.4,0,1,0,83.47,39.66L48.6,69.73a4.78,4.78,0,0,1-1.3,3.18c-1.4,1.61-3.3,2.22-4.3,1.37s-.65-2.86.75-4.47A4.54,4.54,0,0,1,47,68.07ZM25.07,60.24a1.44,1.44,0,0,1,1.48-1.38l7.58.28A1.43,1.43,0,0,1,34,62l-7.58-.28A1.42,1.42,0,0,1,25.07,60.24ZM52.76,72.43h0a1.42,1.42,0,0,1,1.9.64l3.09,6.27A1.42,1.42,0,0,1,55.2,80.6l-3.09-6.27A1.42,1.42,0,0,1,52.76,72.43Zm-10.31,5.2v-.06a1.39,1.39,0,0,1,.9-.5h0a1.19,1.19,0,0,1,.46,0h.09a1.5,1.5,0,0,1,.34.16.8.8,0,0,1,.16.08h0l2.69,2.19L47.3,76a1.42,1.42,0,0,1,2.84.11l-.23,6.41a1.5,1.5,0,0,1,0,.3v.09a1.78,1.78,0,0,1-.23.43h0a1.4,1.4,0,0,1-2,.21l-.16-.15-3.6-2.94L40.79,84.7a1.5,1.5,0,0,1-2.59-.49l-1.71-6-5.28,1.85a1.31,1.31,0,0,1-.27.06,1.33,1.33,0,0,1-1,0h0A1.43,1.43,0,0,1,29,78.34l2.17-6.09L27,70.08h0a.21.21,0,0,1-.1-.06,1.22,1.22,0,0,1-.36-.32h0a1.4,1.4,0,0,1-.14-1.52,1.31,1.31,0,0,1,.62-.61L31.67,64a1.43,1.43,0,0,1,1.84,2.19l-.12.09L30.31,68.6l3,1.56h.1a1.44,1.44,0,0,1,.92,1.09,1.5,1.5,0,0,1-.12,1h0L32.69,76.5l4.08-1.43a1.36,1.36,0,0,1,.35-.07,1.43,1.43,0,0,1,1.6,1l1.36,4.78Z" transform="translate(0.04 0.2)"/><path class="cls-2" d="M82.72,34.87c.34-.34.68-.67,1-1a39.34,39.34,0,0,0-11.94-11L71,24A37.81,37.81,0,0,1,82.72,34.87Z" transform="translate(0.04 0.2)"/><path class="cls-3" d="M86.33,37.42l-1.08.93a37.24,37.24,0,1,1-19-16.93c.23-.37.47-.73.69-1.09A38.45,38.45,0,1,0,86.33,37.42Z" transform="translate(0.04 0.2)"/></g><g id="Layer_1-2" data-name="Layer 1"><rect class="cls-4" x="2.5" y="2.5" width="100" height="100" rx="12"/></g></svg>