<svg xmlns="http://www.w3.org/2000/svg" xmlns:xlink="http://www.w3.org/1999/xlink" viewBox="0 0 105 105"><defs><style>.cls-1{fill:url(#linear-gradient);}.cls-2{fill:url(#linear-gradient-2);}.cls-3{fill:url(#linear-gradient-3);}.cls-4{fill:url(#linear-gradient-4);}.cls-5{fill:url(#linear-gradient-5);}.cls-6{fill:none;stroke-miterlimit:10;stroke-width:5px;stroke:url(#linear-gradient-6);}</style><linearGradient id="linear-gradient" x1="29.28" y1="40.81" x2="75.66" y2="40.81" gradientUnits="userSpaceOnUse"><stop offset="0" stop-color="#29abe2"/><stop offset="1" stop-color="aqua"/></linearGradient><linearGradient id="linear-gradient-2" x1="40.41" y1="86.19" x2="48.5" y2="86.19" xlink:href="#linear-gradient"/><linearGradient id="linear-gradient-3" x1="50.05" y1="86.19" x2="53.38" y2="86.19" xlink:href="#linear-gradient"/><linearGradient id="linear-gradient-4" x1="35.73" y1="69.83" x2="38.94" y2="69.83" xlink:href="#linear-gradient"/><linearGradient id="linear-gradient-5" x1="53.7" y1="69.77" x2="57" y2="69.77" xlink:href="#linear-gradient"/><linearGradient id="linear-gradient-6" x1="0.03" y1="52.37" x2="105.03" y2="52.37" xlink:href="#linear-gradient"/></defs><title>Artboard 16</title><g id="Microphone_4" data-name="Microphone 4"><path class="cls-1" d="M74.13,17.23c-2.23-3.36-4.87-5.34-10.88-7.86s-14.92-1.6-14.92-1.6a24.43,24.43,0,0,0-7.21,2,6.61,6.61,0,0,0-3.79,3.76L34.16,27S30.8,40.73,30.05,44.57s-2,6.87,2.09,10.81a26.25,26.25,0,0,0,7.76,5.39s-.56,2.66-1.29,7,1.58,5.4,1.58,5.4a3.69,3.69,0,0,0,2.56.82l7.55-.11c-.9-.52-1-.74-1.79-1.94s.05-5,.05-5l.94-5.55s0-1.1.83-1a.73.73,0,0,1,.65.9s-.3,2.27-1,5.74-.1,5.3,1.75,6.42a2.86,2.86,0,0,0,3.19.1c-2.29,0-2.82-2.45-2.84-3.57s.62-3.8,2.39-4.07a2.85,2.85,0,0,1,2.73,1.52l.57-4.09a17.2,17.2,0,0,0,8.49-2.95,6.15,6.15,0,0,0,2.53-4.21c.31-1.68,3-14.83,3-14.83s3-13.81,3.43-15.32S76.35,20.6,74.13,17.23ZM65.94,55.89s-12.51-7.08-14-7.57S40,47.73,40,47.73l-7.88,0,.81-3.6h.23l15.54,0a8.88,8.88,0,0,1,4.13.85s4.8,2.43,6.13,3.38,1.58-.14,1.58-.14l.37-1.68c.25-.87-.2-1.22-.2-1.22l-4.38-2.46c-3.9-2.28-5.55-2-5.55-2l-16.9-.09-.16,0,.62-2.75h.23l15.54,0a8.88,8.88,0,0,1,4.13.85s4.8,2.43,6.14,3.38S62,41.94,62,41.94l.37-1.68c.25-.87-.2-1.22-.2-1.22l-4.38-2.46c-3.9-2.28-5.55-2-5.55-2l-16.9-.09-.17,0,.67-3h.26l15.54,0a8.88,8.88,0,0,1,4.13.85s4.81,2.43,6.14,3.38,1.57-.14,1.57-.14l.38-1.68c.25-.87-.21-1.22-.21-1.22l-4.38-2.46c-3.9-2.28-5.55-2-5.55-2l-16.9-.09-.2,0,.64-2.85h.19L53,25.11a8.8,8.8,0,0,1,4.13.86s4.81,2.42,6.14,3.37,1.58-.13,1.58-.13l.37-1.68c.25-.88-.21-1.22-.21-1.22l-4.38-2.46c-3.9-2.28-5.54-2-5.54-2l-16.91-.09-.12,0,.67-2.93h.13l15.54,0a8.88,8.88,0,0,1,4.13.85S63.28,22,64.61,23s1.58-.14,1.58-.14l.37-1.68c.25-.88-.2-1.22-.2-1.22L62,17.47c-3.9-2.28-5.55-2-5.55-2L39.6,15.37a7.73,7.73,0,0,1,2.7-3.26s4.58-2.95,15.37-1.47,14.65,9.08,14.65,9.08a5.16,5.16,0,0,1,.74,2.88c0,.25-.06.57-.12.94l-1.89-1s-1-.6-1.22.36-.5,2.1-.5,2.1a.7.7,0,0,0,.34.83l2.58,1.33L72,28.37l-.35,1.55-2-1.05s-1-.6-1.22.36-.5,2.1-.5,2.1a.71.71,0,0,0,.34.83l2.54,1.31-.62,2.75-1.87-1s-1-.61-1.23.36-.49,2.1-.49,2.1a.7.7,0,0,0,.34.83c.37.18,1.72.88,2.48,1.28l-.61,2.86-2-1.09s-.95-.6-1.22.37-.5,2.1-.5,2.1a.68.68,0,0,0,.34.82l2.64,1.37L67.71,48l-.23,1-2-1.07s-.95-.6-1.23.36-.5,2.1-.5,2.1a.71.71,0,0,0,.35.83l2.58,1.33Z"/><rect class="cls-2" x="40.41" y="75.18" width="8.09" height="22.01"/><rect class="cls-3" x="50.05" y="75.18" width="3.33" height="22.01"/><path class="cls-4" d="M37.19,70.49a32.34,32.34,0,0,1,.55-4.44A6,6,0,0,0,36,68.35a4.59,4.59,0,0,0,.76,4.49,1.88,1.88,0,0,0,2.16.65A4,4,0,0,1,37.19,70.49Z"/><path class="cls-5" d="M55.35,67.4c-.92,0-1.65,1.06-1.65,2.37s.73,2.37,1.65,2.37S57,71.08,57,69.77,56.26,67.4,55.35,67.4Z"/></g><g id="Layer_1" data-name="Layer 1"><rect class="cls-6" x="2.53" y="2.37" width="100" height="100" rx="12"/></g></svg>