<svg id="microphone2" xmlns="http://www.w3.org/2000/svg" xmlns:xlink="http://www.w3.org/1999/xlink" viewBox="0 0 105 105"><defs><style>.cls-1{fill:url(#linear-gradient);}.cls-2{fill:url(#linear-gradient-2);}.cls-3{fill:url(#linear-gradient-3);}.cls-4{fill:url(#linear-gradient-4);}.cls-5{fill:url(#linear-gradient-5);}.cls-6{fill:url(#linear-gradient-6);}.cls-7{fill:none;stroke-miterlimit:10;stroke-width:5px;stroke:url(#linear-gradient-7);}</style><linearGradient id="linear-gradient" x1="24.24" y1="35.96" x2="53.03" y2="35.96" gradientUnits="userSpaceOnUse"><stop offset="0" stop-color="#d2147e"/><stop offset="1" stop-color="#df4f67"/></linearGradient><linearGradient id="linear-gradient-2" x1="15.34" y1="30.93" x2="45.02" y2="30.93" xlink:href="#linear-gradient"/><linearGradient id="linear-gradient-3" x1="67.36" y1="67.29" x2="85.06" y2="67.29" xlink:href="#linear-gradient"/><linearGradient id="linear-gradient-4" x1="41.05" y1="53.67" x2="77.08" y2="53.67" xlink:href="#linear-gradient"/><linearGradient id="linear-gradient-5" x1="51.95" y1="81.09" x2="55.83" y2="81.09" xlink:href="#linear-gradient"/><linearGradient id="linear-gradient-6" x1="56.5" y1="82.83" x2="57.91" y2="82.83" xlink:href="#linear-gradient"/><linearGradient id="linear-gradient-7" x1="0" y1="52.5" x2="105" y2="52.5" xlink:href="#linear-gradient"/></defs><path id="bottomMic" class="cls-1" d="M47.25,19.82A18.69,18.69,0,0,1,53,32.15h0C49,42.41,38.42,50.8,37.05,51.86a18.6,18.6,0,0,1-12.81-2.62A55.51,55.51,0,0,0,47.25,19.82Z" transform="translate(0.04)"/><path id="microphoneAudio" class="cls-2" d="M34.21,14.62A19,19,0,0,1,45,18C38.07,36.1,23,46.33,21.56,47.23a18.59,18.59,0,0,1-6.22-13.87A18.81,18.81,0,0,1,34.21,14.62ZM16.92,26.2a4.19,4.19,0,0,0-.42,1l-.3,1.07a.81.81,0,0,0,.34.08,1.05,1.05,0,0,0,.94-1.14A1.16,1.16,0,0,0,16.92,26.2Zm.8,3.25a1.25,1.25,0,0,0,1.09,1.36,1.39,1.39,0,0,0,0-2.71A1.25,1.25,0,0,0,17.72,29.45ZM40.4,18.13c.6,0,1.08-.71,1.08-1.6a2.62,2.62,0,0,0,0-.28,7.74,7.74,0,0,0-1-.45c-.31-.12-.9-.3-.9-.3a2.07,2.07,0,0,0-.26,1C39.31,17.42,39.79,18.13,40.4,18.13ZM36.9,21.9c.6,0,1.09-.71,1.09-1.59s-.49-1.6-1.09-1.6-1.09.71-1.09,1.6S36.3,21.9,36.9,21.9Zm-1.09-5.37c.6,0,1.09-.71,1.09-1.59,0,0,0,0,0,0s-.53-.07-1.11-.12-1.08,0-1.08,0,0,.13,0,.2C34.72,15.82,35.21,16.53,35.81,16.53ZM33.57,27.24c.6,0,1.09-.71,1.09-1.6s-.49-1.59-1.09-1.59-1.09.71-1.09,1.59S33,27.24,33.57,27.24Zm-.44-7.95c.6,0,1.08-.72,1.08-1.6s-.48-1.6-1.08-1.6S32,16.81,32,17.69,32.52,19.29,33.13,19.29ZM29.47,32.44c.6,0,1.09-.72,1.09-1.6s-.49-1.6-1.09-1.6-1.09.72-1.09,1.6S28.87,32.44,29.47,32.44Zm0-8.39c.6,0,1.09-.72,1.09-1.6s-.49-1.6-1.09-1.6-1.09.72-1.09,1.6S28.87,24.05,29.47,24.05Zm0-6.61a1.24,1.24,0,0,0,1.09-1.35,1.43,1.43,0,0,0-.32-1s-.6.12-.87.2c-.46.13-.92.29-.92.29a1.72,1.72,0,0,0-.07.47A1.24,1.24,0,0,0,29.47,17.44Zm-2.12,2.62a1.24,1.24,0,0,0-1.09-1.35,1.24,1.24,0,0,0-1.09,1.35,1.24,1.24,0,0,0,1.09,1.35A1.24,1.24,0,0,0,27.35,20.06Zm-1.86,5.58c-.6,0-1.09.72-1.09,1.6s.49,1.6,1.09,1.6,1.09-.72,1.09-1.6S26.09,25.64,25.49,25.64Zm-.32,11.15c.6,0,1.09-.72,1.09-1.6s-.49-1.6-1.09-1.6-1.09.72-1.09,1.6S24.57,36.79,25.17,36.79Zm-.75-18.21a1.24,1.24,0,0,0-.38-.92l-.76.55-.73.56h0a1,1,0,0,0,.93.95A1.05,1.05,0,0,0,24.42,18.58Zm-2.33,5.1a1.39,1.39,0,0,0,0,2.71,1.39,1.39,0,0,0,0-2.71Zm1,8.08c0-.88-.48-1.6-1.08-1.6s-1.09.72-1.09,1.6.48,1.6,1.09,1.6S23.06,32.64,23.06,31.76ZM21.45,41c.6,0,1.09-.71,1.09-1.59s-.49-1.6-1.09-1.6-1.09.71-1.09,1.6S20.85,41,21.45,41ZM20.36,22.91a1.08,1.08,0,0,0-.86-1.14h0l-1,1.37a.59.59,0,0,0,0,.2,1,1,0,0,0,.87.71A1.05,1.05,0,0,0,20.36,22.91ZM19.9,35.73c0-.88-.49-1.59-1.09-1.59s-1.09.71-1.09,1.59.49,1.6,1.09,1.6S19.9,36.62,19.9,35.73ZM17.84,42.3c.43.8.86,1.45.86,1.45a2.13,2.13,0,0,0,.3-1.11c0-.88-.49-1.6-1.09-1.6a.83.83,0,0,0-.61.28Zm-1.65-8.16a1.39,1.39,0,0,0,0-2.71.92.92,0,0,0-.66.28s0,.52,0,1,0,1.18,0,1.18A1,1,0,0,0,16.19,34.14Z" transform="translate(0.04)"/><path class="cls-3" d="M81.2,58.07c-.16-.19-.34-.4-.53-.6C77.26,64.73,68.1,73.91,67.36,74.65c1.25.75,2.33,1.36,3.07,1.7,8.22,3.8,14.2-7.75,14.2-7.75S86.86,64.72,81.2,58.07Z" transform="translate(0.04)"/><path class="cls-4" d="M69.24,65.91c3.27-3.67,6.83-8.41,7.82-12.46,0,0,.12-.42-.16-.38,0,0-.09,0-.26.25-7.77-7.58-20.17-18.13-20.17-18.13a44.24,44.24,0,0,1-15.42,19s2.73,2.2,7.71,6.94c0,0,1.49,1.35,5.24,4.24l5.18,3.87c1.19.85,2.51,1.76,3.82,2.64h0c-.18.19-.09.41.2.17,0,0,1-.93,2.55-2.43C67,68.37,68.2,67.13,69.24,65.91Z" transform="translate(0.04)"/><polygon id="standLeft" class="cls-5" points="51.95 65.98 55.83 68.9 55.83 96.2 51.95 96.2 51.95 65.98"/><polygon id="standRight" class="cls-6" points="56.5 69.46 57.6 70.18 57.91 96.2 56.65 96.2 56.5 69.46"/><rect id="border" class="cls-7" x="2.5" y="2.5" width="100" height="100" rx="12"/></svg>