<svg id="electricGuitar" xmlns="http://www.w3.org/2000/svg" xmlns:xlink="http://www.w3.org/1999/xlink" viewBox="0 0 105 105"><defs><style>.cls-1{fill:url(#linear-gradient);}.cls-2{fill:url(#linear-gradient-2);}.cls-3{fill:url(#linear-gradient-3);}.cls-4{fill:url(#linear-gradient-4);}.cls-5{fill:url(#linear-gradient-5);}.cls-6{fill:none;stroke-miterlimit:10;stroke-width:5px;stroke:url(#linear-gradient-6);}</style><linearGradient id="linear-gradient" x1="11.61" y1="52.61" x2="93.31" y2="52.61" gradientUnits="userSpaceOnUse"><stop offset="0" stop-color="#d2147e"/><stop offset="1" stop-color="#df4f67"/></linearGradient><linearGradient id="linear-gradient-2" x1="84.57" y1="15.27" x2="86.24" y2="15.27" xlink:href="#linear-gradient"/><linearGradient id="linear-gradient-3" x1="87.51" y1="12.84" x2="89.02" y2="12.84" xlink:href="#linear-gradient"/><linearGradient id="linear-gradient-4" x1="89.83" y1="20.16" x2="91.37" y2="20.16" xlink:href="#linear-gradient"/><linearGradient id="linear-gradient-5" x1="91.88" y1="18.03" x2="93.52" y2="18.03" xlink:href="#linear-gradient"/><linearGradient id="linear-gradient-6" x1="0" y1="52.5" x2="105" y2="52.5" xlink:href="#linear-gradient"/></defs><path id="guitarBody" class="cls-1" d="M91.17,17.86a17,17,0,0,0,2.06-2s.26-.27-.16-1.49a9.06,9.06,0,0,0-1.61-2.53s-.35-.27-.77.17S88.59,14,88.59,14a9.78,9.78,0,0,1-1.77,1.59c-.8.48-3,1.89-3,1.89l-1.23.6-.59.37s-.26,0-.34.91a4.94,4.94,0,0,1-1,2.51c-.53.75-6.12,6-6.12,6L66,36.22,57.89,44,46,55.35s-1.64,1.35-2.67,2.42a2.39,2.39,0,0,1-2.3.69c-2.31-1-1.25-3.37-1.25-4.14s3.46-6.06,3.46-6.06,1.45-1.73,0-2.69-3,.48-3,.48c-4.08,2.66-6.87,8.14-8.83,12.39s-5.75,5.41-9.71,6.42-6.13,1.94-8.43,4.51-2.16,8.1,0,13,8,8.35,10.88,10.16,8.43,1,11.81-1.45,4.26-9,4.69-11,2.52-3.31,6.27-4.47,4.17-2.45,4.17-2.45c.87-2.45-2.52-1.87-2.52-1.87s-4.25.58-5.76-1.22A2.87,2.87,0,0,1,43,66.37l7.64-7.85,27.73-28,4.93-5a3.08,3.08,0,0,1,2.41-.89.85.85,0,0,0,.93-.61,6.52,6.52,0,0,1,1.33-2.26c.76-1,1.75-2.25,1.75-2.25A7.14,7.14,0,0,1,91.17,17.86ZM28.47,68.29c-1.5,0-2.89,1.5-3.29,2a.92.92,0,0,0-.18.3l-.77,1.91a1,1,0,0,1-1.2.63l-1-.21a1.1,1.1,0,0,0-.8.13c-2.15,1.35-4.48,2.26-5.68,2.14S13.13,73,14.3,72.37c.69-.39,1.09.13,1.3.61a1.62,1.62,0,0,0,1.53,1.07,4,4,0,0,0,1.49-.48,17.84,17.84,0,0,0,2.51-2.12,1.12,1.12,0,0,0,.22-.33l.83-1.88a1,1,0,0,1,.95-.61l1.74,0,.25,0a14.87,14.87,0,0,0,3.32-1.5.88.88,0,0,1,.32-.12c.66-.13,3-.47,3.11,1.06.06.72-.19,1-.51,1.16a1.35,1.35,0,0,1-1.4-.48A1.77,1.77,0,0,0,28.47,68.29Zm7.86,12.8a1.06,1.06,0,0,0-.24.78l.08,1a1,1,0,0,1-.79,1.1l-2,.44a1,1,0,0,0-.32.13c-.54.32-2.24,1.46-2.43,2.94a1.87,1.87,0,0,0,.27,1.57,1.38,1.38,0,0,1,.3,1.47c-.16.3-.51.5-1.23.31-1.53-.4-.88-2.63-.67-3.27a.92.92,0,0,1,.17-.29,14.3,14.3,0,0,0,1.94-3.06,1.83,1.83,0,0,0,.06-.25l.2-1.73a1,1,0,0,1,.74-.85l2-.51a.92.92,0,0,0,.36-.17,16.52,16.52,0,0,0,2.46-2.14,3.81,3.81,0,0,0,.68-1.4,1.71,1.71,0,0,0-.87-1.7c-.46-.29-.93-.77-.45-1.4.82-1,2.69.43,2.65,1.7S38,79.18,36.33,81.09Z" transform="translate(0.02 -0.09)"/><path id="bottomRight" class="cls-2" d="M86.11,15.24a.46.46,0,0,0,.1-.48c-.14-.25-.61-.26-1,0s-.69.63-.55.88a.29.29,0,0,0,.15.14h0a.91.91,0,0,0,.26.06,5,5,0,0,1,.53.16l.33-.22c-.1-.14.24-.52.24-.52Z" transform="translate(0.02 -0.09)"/><path id="topLeft" class="cls-3" d="M89,12.72a.46.46,0,0,0,0-.49c-.19-.21-.64-.11-1,.22s-.52.78-.33,1a.32.32,0,0,0,.19.1h0a5.66,5.66,0,0,1,.83,0l.26-.29c-.13-.11.11-.56.11-.56Z" transform="translate(0.02 -0.09)"/><path id="bottomRight-2" data-name="bottomRight" class="cls-4" d="M91.3,19.58a.43.43,0,0,0-.4-.11h0a5.69,5.69,0,0,1-.82.09l-.22.31c.09.07,0,.28,0,.43h0l0,.15,0,0a.38.38,0,0,0,.05.32c.18.22.64.14,1-.18S91.48,19.8,91.3,19.58Z" transform="translate(0.02 -0.09)"/><path id="topRight" class="cls-5" d="M93.48,17.55a.47.47,0,0,0-.43-.17h0a5.71,5.71,0,0,1-.82,0l-.25.3c.07,0,0,.2,0,.34a.77.77,0,0,0-.08.19v0h0a.42.42,0,0,0,0,.25c.15.24.62.23,1,0S93.62,17.8,93.48,17.55Z" transform="translate(0.02 -0.09)"/><rect id="border" class="cls-6" x="2.5" y="2.5" width="100" height="100" rx="12"/></svg>