<svg id="baseDrum" xmlns="http://www.w3.org/2000/svg" xmlns:xlink="http://www.w3.org/1999/xlink" viewBox="0 0 105 105"><defs><style>.cls-1{fill:none;stroke-miterlimit:10;stroke-width:5px;stroke:url(#linear-gradient);}.cls-2{fill:url(#linear-gradient-2);}.cls-3{fill:url(#linear-gradient-3);}.cls-4{fill:url(#linear-gradient-4);}.cls-5{fill:url(#linear-gradient-5);}</style><linearGradient id="linear-gradient" y1="52.5" x2="105" y2="52.5" gradientUnits="userSpaceOnUse"><stop offset="0" stop-color="#d2147e"/><stop offset="1" stop-color="#df4f67"/></linearGradient><linearGradient id="linear-gradient-2" x1="86.33" y1="78.56" x2="93.31" y2="78.56" xlink:href="#linear-gradient"/><linearGradient id="linear-gradient-3" x1="10.83" y1="78.52" x2="17.81" y2="78.52" xlink:href="#linear-gradient"/><linearGradient id="linear-gradient-4" x1="13.08" y1="51.13" x2="90.96" y2="51.13" xlink:href="#linear-gradient"/><linearGradient id="linear-gradient-5" x1="20.13" y1="50.69" x2="84" y2="50.69" xlink:href="#linear-gradient"/></defs><rect id="border" class="cls-1" x="2.5" y="2.5" width="100" height="100" rx="12"/><path id="rightStand" class="cls-2" d="M92.35,90.08h0L87.66,62.74c-.25,1.12-1.33,4-1.33,4l4.33,23.3a1,1,0,0,0-1,1v2.37a1,1,0,0,0,1,1h1.69a1,1,0,0,0,1-1V91.05A1,1,0,0,0,92.35,90.08Z"/><path id="leftStand" class="cls-3" d="M11.79,90h0l4.69-27.35c.25,1.13,1.33,4,1.33,4L13.48,90a1,1,0,0,1,1,1v2.37a1,1,0,0,1-1,1H11.79a1,1,0,0,1-1-1V91A1,1,0,0,1,11.79,90Z"/><path id="outerRing" class="cls-4" d="M89.5,45.89H88.3a36.34,36.34,0,0,0-7.43-17.3l.82-.82a1.45,1.45,0,0,0,0-2.06l-5.36-5.36a1.45,1.45,0,0,0-2.06,0l-1,1a36.51,36.51,0,0,0-43,.57l-1.11-1.18a1.47,1.47,0,0,0-2.06-.07l-5.53,5.18a1.46,1.46,0,0,0-.07,2.06l1.13,1.21a1.65,1.65,0,0,0,.27.19,36.36,36.36,0,0,0-7,17.37h-1.4a1.47,1.47,0,0,0-1.46,1.46v7.58a1.47,1.47,0,0,0,1.46,1.46h1.63a36.31,36.31,0,0,0,6.59,15.57l0,0-1.17,1.17a1.47,1.47,0,0,0,0,2.06l5.36,5.36a1.47,1.47,0,0,0,2.06,0l1.14-1.14a36.47,36.47,0,0,0,45.5-1.12l.92.84a1.47,1.47,0,0,0,2.06-.1l5.11-5.59a1.47,1.47,0,0,0-.1-2.06l-1-.91a36.3,36.3,0,0,0,5.69-14.9h1.2A1.47,1.47,0,0,0,91,54.92V47.34A1.46,1.46,0,0,0,89.5,45.89ZM57.26,84.2v.35a2.07,2.07,0,0,1-2.07,2.06H53.28v.32H50.93v-.32H49A2.07,2.07,0,0,1,47,84.55v-.32a33.57,33.57,0,1,1,10.31,0Z"/><path id="baseBody" class="cls-5" d="M52.07,18.93a31.94,31.94,0,0,0-4.82,63.51v-6a2,2,0,0,1,2-2H51V57.92h-.56a3,3,0,0,1-3-3V50.75a3,3,0,0,1,3-3h3.2a3,3,0,0,1,3,3v4.17a3,3,0,0,1-3,3h-.41V74.43h1.83a2,2,0,0,1,2,2v6a31.94,31.94,0,0,0-5-63.48Z"/></svg>