<svg id="baseGuitar" xmlns="http://www.w3.org/2000/svg" xmlns:xlink="http://www.w3.org/1999/xlink" viewBox="0 0 105 105"><defs><style>.cls-1{fill:#d2147d;}.cls-2{fill:url(#linear-gradient);}.cls-3{fill:none;stroke-miterlimit:10;stroke-width:5px;stroke:url(#linear-gradient-2);}</style><linearGradient id="linear-gradient" x1="15.54" y1="53.02" x2="84.93" y2="53.02" gradientUnits="userSpaceOnUse"><stop offset="0" stop-color="#d2147e"/><stop offset="1" stop-color="#df4f67"/></linearGradient><linearGradient id="linear-gradient-2" x1="0" y1="52.5" x2="105" y2="52.5" xlink:href="#linear-gradient"/></defs><path id="topLeft" class="cls-1" d="M75.17,22.62c.26-.11.36-.47.31-.88.47,0,.86-.1.94-.38s-.31-.83-1-1a1.43,1.43,0,0,0-1.23.08h0c-.36.16-.44.78-.17,1.39S74.81,22.77,75.17,22.62Z" transform="translate(-0.06 -0.11)"/><path id="bottomLeft" class="cls-1" d="M72.54,25.51c.26-.11.36-.47.31-.88.47,0,.85-.1.94-.38s-.32-.83-1-1a1.43,1.43,0,0,0-1.23.08h0c-.36.16-.44.78-.18,1.39S72.18,25.66,72.54,25.51Z" transform="translate(-0.06 -0.11)"/><path id="topRight" class="cls-1" d="M81.34,26.52c-.27.12-.36.52-.27,1-.42,0-.76.14-.84.41s.31.83,1,1,1.24.05,1.36-.32h0a1.44,1.44,0,0,0-.06-1.24C82.2,26.75,81.69,26.37,81.34,26.52Z" transform="translate(-0.06 -0.11)"/><path id="bottomRight" class="cls-1" d="M78.77,29.18c-.27.12-.36.52-.27,1-.42,0-.76.13-.84.4s.31.83.94,1,1.25.05,1.36-.32h0a1.43,1.43,0,0,0,0-1.24C79.63,29.4,79.12,29,78.77,29.18Z" transform="translate(-0.06 -0.11)"/><path id="guitarBody" class="cls-2" d="M84.47,18.87c-1-.9-1.65-.49-2.49,0a1.93,1.93,0,0,1-1.61.39c-.46,0-1.44.46-1.54,1a2.42,2.42,0,0,1-.65,1.46L61.29,37.25a2.3,2.3,0,0,1-2.56.38,11.56,11.56,0,0,0-1.46-.57l0,0c-2.06-.88-6.77-1.42-7.38-1.49H49.8c-2.61-.23-4.87.32-6.12,1.52a12.19,12.19,0,0,0-2,2.07,10.62,10.62,0,0,0-1.9,3.58h0a5.27,5.27,0,0,1-1.94,1.17l0,0c-.68.25-1.13.71-1.13,1.23a1,1,0,0,0,.26.64h0a2.19,2.19,0,0,0,.87.59c1.6,1.33.08,2.21.08,2.21l-2.18,1.86C33,52.91,32,53,31,52.87l-.21,0-.24,0A2,2,0,0,1,29,52.05L29,52l0,0h0a1.21,1.21,0,0,0-1-.6,1.41,1.41,0,0,0-1.19,1,2.36,2.36,0,0,1-1.34,1.31,16.16,16.16,0,0,0-3.76,1.93c-5.25,3.61-7.54,9.43-5.27,13.18A31.08,31.08,0,0,0,21,76.8a2.27,2.27,0,0,1-.07,2.84l-3.63,4.3s-1,1.2-.29,2.07,2-.32,2-.32l4.1-3.44a2.28,2.28,0,0,1,3,.06c3.15,2.83,6.28,4.64,8.66,5,3.56,1.22,8.5-.67,12-4.9a16.1,16.1,0,0,0,2.75-4.79,2.28,2.28,0,0,1,1.24-1.29,1.48,1.48,0,0,0,1-1.29,1.19,1.19,0,0,0-.46-.82h0a3.4,3.4,0,0,1-1.1-1.59h0c0-.11,0-.22,0-.33v0c-.2-1.52,2.53-6.31,4.17-7.18a2.25,2.25,0,0,1,2.78.58l0,0h0a1.41,1.41,0,0,0,1.43.6,1.5,1.5,0,0,0,.83-1.51v0c.15-.81,1.67-2.13,1.67-2.13h0a13.36,13.36,0,0,0,1.76-.84A12.08,12.08,0,0,0,64,61c2.33-.86,3.67-4.46,3.26-8.67,0,0,0,0,0-.06a38.34,38.34,0,0,0-1-6.32h0a9.42,9.42,0,0,0-1.5-3.27h0L81.35,25c.5-.53.58-.78,1.3-.73.52,0,1.69-.52,1.61-1.41a2.75,2.75,0,0,1,.28-1.49C84.78,20.5,85.31,19.65,84.47,18.87ZM54.93,46.58C67.83,33.73,78.11,23.26,78.3,23.45s-10.12,10.76-23,23.61C43.6,58.68,33.87,68.27,32,69.84a.5.5,0,0,1-.41.14s0-.17.13-.36C33.25,67.81,43.2,58.25,54.93,46.58Zm-25,11.08,0-.1.05-.09h0a1.28,1.28,0,0,1,2.39.63,1.23,1.23,0,0,1-.27.75v0c0,.48.37.63,1.11.31a22.11,22.11,0,0,0,3.44-2.94c1.54-1.4,3.21-2.41,4.66-2.22S43,56.4,43,56.4a1.29,1.29,0,1,1-2.57,0,1.45,1.45,0,0,1,.1-.51h0c.11-.51-1.15.51-1.15.51s-3.29,2.8-4.2,3.65-4.41,2.64-5.18.78A4.23,4.23,0,0,1,29.92,57.66Zm4,18.12a.9.9,0,0,1-.69-.33h0l-5.66-5.67h0a.91.91,0,0,1,.69-1.53.94.94,0,0,1,.61.23h0l5.67,5.67h0a.92.92,0,0,1,.33.7A.93.93,0,0,1,33.92,75.78ZM46.87,66.5a22.46,22.46,0,0,0-3.06,3.34c-.34.72-.2,1.15.27,1.12,0,0,0,0,0,0a1.26,1.26,0,0,1,.76-.25,1.3,1.3,0,0,1,1.24,1.34,1.27,1.27,0,0,1-.7,1.07v0l-.1,0-.1,0A4.29,4.29,0,0,1,42.05,73c-1.84-.84.08-4.26,1-5.15s3.8-4.07,3.8-4.07,1.07-1.22.55-1.14h0a1.1,1.1,0,0,1-.51.09,1.29,1.29,0,1,1,.09-2.57s2.19.28,2.32,1.73S48.33,65,46.87,66.5ZM56.7,48.09C45,59.71,35.3,69.3,33.39,70.87A.52.52,0,0,1,33,71a.46.46,0,0,1,.13-.36c1.57-1.81,11.52-11.37,23.25-23C69.26,34.76,79.53,24.29,79.72,24.48S69.6,35.24,56.7,48.09Z" transform="translate(-0.06 -0.11)"/><rect id="border" class="cls-3" x="2.5" y="2.5" width="100" height="100" rx="12"/></svg>