<svg id="microphone1" xmlns="http://www.w3.org/2000/svg" xmlns:xlink="http://www.w3.org/1999/xlink" viewBox="0 0 105 105"><defs><style>.cls-1{fill:url(#linear-gradient);}.cls-2{fill:url(#linear-gradient-2);}.cls-3{fill:url(#linear-gradient-3);}.cls-4{fill:url(#linear-gradient-4);}.cls-5{fill:url(#linear-gradient-5);}.cls-6{fill:url(#linear-gradient-6);}.cls-7{fill:url(#linear-gradient-7);}.cls-8{fill:url(#linear-gradient-8);}.cls-9{fill:none;stroke-miterlimit:10;stroke-width:5px;stroke:url(#linear-gradient-9);}</style><linearGradient id="linear-gradient" x1="46.46" y1="38.34" x2="58.51" y2="38.34" gradientUnits="userSpaceOnUse"><stop offset="0" stop-color="#d2147e"/><stop offset="1" stop-color="#df4f67"/></linearGradient><linearGradient id="linear-gradient-2" x1="38.02" y1="23.47" x2="66.96" y2="23.47" xlink:href="#linear-gradient"/><linearGradient id="linear-gradient-3" x1="44.03" y1="40.42" x2="59.92" y2="40.42" xlink:href="#linear-gradient"/><linearGradient id="linear-gradient-4" x1="50.38" y1="62.45" x2="53.62" y2="62.45" xlink:href="#linear-gradient"/><linearGradient id="linear-gradient-5" x1="50.38" y1="65.56" x2="53.62" y2="65.56" xlink:href="#linear-gradient"/><linearGradient id="linear-gradient-6" x1="44.92" y1="67.33" x2="59.25" y2="67.33" xlink:href="#linear-gradient"/><linearGradient id="linear-gradient-7" x1="47.31" y1="92.24" x2="56.69" y2="92.24" xlink:href="#linear-gradient"/><linearGradient id="linear-gradient-8" x1="50.38" y1="95.74" x2="53.62" y2="95.74" xlink:href="#linear-gradient"/><linearGradient id="linear-gradient-9" x1="0" y1="52.5" x2="105" y2="52.5" xlink:href="#linear-gradient"/></defs><g id="microphoneAudio"><path class="cls-1" d="M46.46,37.68a14.41,14.41,0,0,0,12,0C53.49,37.72,48.92,37.7,46.46,37.68Z" transform="translate(0 -0.07)"/><path class="cls-2" d="M52.49,10.06a14.46,14.46,0,0,0-7.67,26.73c6.64.17,13.64,0,15.33,0a14.46,14.46,0,0,0-7.66-26.73ZM39.1,26.55V22.7a245.9,245.9,0,0,0,26.72,0,22.91,22.91,0,0,1,0,3.85C48.8,27.72,39.1,26.55,39.1,26.55Z" transform="translate(0 -0.07)"/></g><path id="topBodyMic" class="cls-3" d="M44,37.68H59.92s-.6,4-.6,5.48H44.87S44.9,39.46,44,37.68Z" transform="translate(0 -0.07)"/><g id="bodyMic"><rect class="cls-4" x="50.38" y="61.82" width="3.24" height="1.26"/><rect class="cls-5" x="50.38" y="64.88" width="3.24" height="1.35"/><path class="cls-6" d="M44.92,44.36l2.45,45.93H57l2.22-45.93Zm7.18,33.5c-2.45.23-2.33-2.64-2.33-2.64V59.46s.11-2.68,2.21-2.68a2.45,2.45,0,0,1,2.45,2.68v15.6A2.63,2.63,0,0,1,52.1,77.86Z" transform="translate(0 -0.07)"/></g><polygon id="bottomMic" class="cls-7" points="47.31 91.05 56.69 91.05 54.43 93.44 49.77 93.44 47.31 91.05"/><rect id="bottomChord" class="cls-8" x="50.38" y="93.44" width="3.24" height="4.61"/><rect id="border" class="cls-9" x="2.5" y="2.5" width="100" height="100" rx="12"/></svg>