<svg id="handBell" xmlns="http://www.w3.org/2000/svg" xmlns:xlink="http://www.w3.org/1999/xlink" viewBox="0 0 105 105"><defs><style>.cls-1{fill:url(#linear-gradient);}.cls-2{fill:url(#linear-gradient-2);}.cls-3{fill:none;stroke-miterlimit:10;stroke-width:5px;stroke:url(#linear-gradient-3);}</style><linearGradient id="linear-gradient" x1="32.24" y1="81.49" x2="41.83" y2="81.49" gradientUnits="userSpaceOnUse"><stop offset="0" stop-color="#d2147e"/><stop offset="1" stop-color="#df4f67"/></linearGradient><linearGradient id="linear-gradient-2" x1="22.14" y1="53.72" x2="79.72" y2="53.72" xlink:href="#linear-gradient"/><linearGradient id="linear-gradient-3" x1="0" y1="52.5" x2="105" y2="52.5" xlink:href="#linear-gradient"/></defs><path id="bell" class="cls-1" d="M41.83,78.38l-3.3-2.26s-1.73,3.14-3.07,3.7a5.77,5.77,0,0,0-2.27,1.53,3.05,3.05,0,0,0-.45.57l-.05.06h0a3.22,3.22,0,1,0,5.68,3h0a6.69,6.69,0,0,0,.73-2.87C39,81,41.83,78.38,41.83,78.38Z" transform="translate(0 -0.07)"/><path id="body" class="cls-2" d="M77.57,20.19c-3.56-2.45-10.27,1.11-15,8-3,4.3-4.44,8.87-4.24,12.29v0c0,.25,0,.46,0,.69,0,1.53-1.73,2.26-2.57,2.53l-.44.12h0c-.37.11-.69.22-.95.32A7.1,7.1,0,0,0,53,45c-6.68,6.51-11.9,9.92-15.28,11.67a18.32,18.32,0,0,1-6.59,2C27,59,18.78,60.66,23.62,67.22c6.32,8.56,27.81,21.21,35,20.78s2-6.18,1.55-13.76,3.09-10.82,4.35-20.09a40.4,40.4,0,0,0,.38-4.5v0c.24-3.37,1.18-4.4,1.51-4.56h0c3-1.26,6.37-4.09,9.07-8C80.18,30.19,81.12,22.65,77.57,20.19ZM54.74,49.72,41.64,60.47A1.18,1.18,0,0,1,40,60.31h0a1.18,1.18,0,0,1,.17-1.66L53.24,47.9a1.18,1.18,0,0,1,1.66.16h0A1.19,1.19,0,0,1,54.74,49.72Zm18-14.15c-3.85,5.58-8.73,8.9-10.9,7.4s-.81-7.24,3-12.82,8.73-8.9,10.9-7.4S76.61,30,72.76,35.57Z" transform="translate(0 -0.07)"/><rect id="border" class="cls-3" x="2.5" y="2.5" width="100" height="100" rx="12"/></svg>