<svg id="piano" xmlns="http://www.w3.org/2000/svg" xmlns:xlink="http://www.w3.org/1999/xlink" viewBox="0 0 105 105"><defs><style>.cls-1{fill:url(#linear-gradient);}.cls-2,.cls-3{fill:none;}.cls-2{stroke-miterlimit:10;stroke-width:5px;stroke:url(#linear-gradient-2);}</style><linearGradient id="linear-gradient" x1="18.61" y1="52.57" x2="89.63" y2="52.57" gradientUnits="userSpaceOnUse"><stop offset="0" stop-color="#d2147e"/><stop offset="1" stop-color="#df4f67"/></linearGradient><linearGradient id="linear-gradient-2" x1="0" y1="52.5" x2="105" y2="52.5" xlink:href="#linear-gradient"/></defs><path id="pianoBody" class="cls-1" d="M89.23,52.6a12,12,0,0,0-11.6-9h-12s-6.22-.07-8.47-2.26a10,10,0,0,1-3-6.23A4.86,4.86,0,0,0,54,34v0h0c-1-3.68-6.12-7.68-13-9.72a27.08,27.08,0,0,0-10.26-1.16,15.67,15.67,0,0,0-6.46,1.39c-2.56.88-4.67,3.83-5.71,7.79v5.51c0,2.33.27,6.44.27,6.44l-.25,10.09h0c0,.16,0,.31,0,.47V75.92a6.24,6.24,0,0,0,6.23,6.23H83.41a6.24,6.24,0,0,0,6.22-6.23V54.77A6.28,6.28,0,0,0,89.23,52.6ZM81,76.3v4.52H79.13V69.71h1.19V76.3Zm-2.28-6.59V80.82H76.85V76.3h.68V69.71ZM57.39,76.3V69.71h1.68V80.82H56.7V76.3Zm2.08-6.59h1.69V76.3h.68v4.52H59.47Zm2.77,6.59h.69V69.71h1V76.3h.68v4.52H62.24Zm2.73,0h.69V69.71h1.25V80.82H65Zm2.34-6.59h1.26V76.3h.68v4.52H67.31Zm2.34,6.59h.68V69.71h1.93V76.3h.68v4.52H69.65Zm3.7,0H74V69.71h1.73V76.3h.68v4.52H73.35ZM55.62,69.71V76.3h.68v4.52H52.9V76.3h.68V69.71Zm-3.8,0V76.3h.68v4.52H49.1V76.3h.68V69.71ZM43.19,76.3V69.71h2.07V80.82H42.51V76.3Zm2.47-6.59H48V76.3h.69v4.52h-3Zm-4.24,0V76.3h.68v4.52h-2V76.3h.68V69.71ZM35.1,76.3V69.71h1.48V80.82H34.42V76.3ZM37,69.71h2V76.3h.68v4.52H37Zm-3.66,0V76.3H34v4.52H31V76.3h.68V69.71ZM27.92,76.3V69.71h2V76.3h.68v4.52H27.23V76.3Zm-3.21,3.42V70.81a1.1,1.1,0,0,1,1.1-1.1h.35V76.3h.66v4.52h-1A1.1,1.1,0,0,1,24.71,79.72Zm58.82,0a1.1,1.1,0,0,1-1.1,1.1h-1V76.3h.68V69.71h.34a1.1,1.1,0,0,1,1.1,1.1Z" transform="translate(0.07 -0.07)"/><rect id="border" class="cls-2" x="2.5" y="2.5" width="100" height="100" rx="12"/><g id="pianoKeys"><polygon id="c" class="cls-3" points="39.24 76.24 39.24 69.65 36.88 69.65 36.88 80.75 39.92 80.75 39.92 76.24 39.24 76.24"/><polygon id="e" class="cls-3" points="43.32 69.65 43.32 76.24 42.44 76.24 42.44 80.75 45.47 80.75 45.47 69.65 43.32 69.65"/><polygon id="g" class="cls-3" points="51.88 76.24 51.88 69.65 49.86 69.65 49.86 76.24 49.17 76.24 49.17 80.75 52.57 80.75 52.57 76.24 51.88 76.24"/><polygon id="c-2" data-name="c" class="cls-3" points="61.35 76.24 61.35 69.65 59.38 69.65 59.38 80.75 61.91 80.75 61.91 76.24 61.35 76.24"/><polygon id="e-2" data-name="e" class="cls-3" points="65.46 69.65 65.46 76.24 64.83 76.24 64.83 80.75 66.98 80.75 66.98 69.65 65.46 69.65"/><polygon id="g-2" data-name="g" class="cls-3" points="72.38 76.24 72.38 69.65 70.36 69.65 70.36 76.24 69.67 76.24 69.67 80.75 73.07 80.75 73.07 76.24 72.38 76.24"/></g></svg>