<svg id="snareDrum2" xmlns="http://www.w3.org/2000/svg" xmlns:xlink="http://www.w3.org/1999/xlink" viewBox="0 0 105 105"><defs><style>.cls-1{fill:url(#linear-gradient);}.cls-2{fill:url(#linear-gradient-2);}.cls-3{fill:url(#linear-gradient-3);}.cls-4{fill:url(#linear-gradient-4);}.cls-5{fill:url(#linear-gradient-5);}.cls-6{fill:url(#linear-gradient-6);}.cls-7{fill:url(#linear-gradient-7);}.cls-8{fill:url(#linear-gradient-8);}.cls-9{fill:url(#linear-gradient-9);}.cls-10{fill:url(#linear-gradient-10);}.cls-11{fill:none;stroke-miterlimit:10;stroke-width:5px;stroke:url(#linear-gradient-11);}</style><linearGradient id="linear-gradient" x1="22.41" y1="30.49" x2="82.09" y2="30.49" gradientUnits="userSpaceOnUse"><stop offset="0" stop-color="#d2147e"/><stop offset="1" stop-color="#df4f67"/></linearGradient><linearGradient id="linear-gradient-2" x1="22.41" y1="78.53" x2="82.09" y2="78.53" xlink:href="#linear-gradient"/><linearGradient id="linear-gradient-3" x1="23.41" y1="41.16" x2="81.1" y2="41.16" xlink:href="#linear-gradient"/><linearGradient id="linear-gradient-4" x1="22.14" y1="51.35" x2="82.36" y2="51.35" xlink:href="#linear-gradient"/><linearGradient id="linear-gradient-5" x1="39.68" y1="69.39" x2="51.54" y2="69.39" xlink:href="#linear-gradient"/><linearGradient id="linear-gradient-6" x1="64.66" y1="66.5" x2="74.97" y2="66.5" xlink:href="#linear-gradient"/><linearGradient id="linear-gradient-7" x1="52.61" y1="69.32" x2="63.68" y2="69.32" xlink:href="#linear-gradient"/><linearGradient id="linear-gradient-8" x1="76.71" y1="62.16" x2="82.26" y2="62.16" xlink:href="#linear-gradient"/><linearGradient id="linear-gradient-9" x1="29.07" y1="66.57" x2="40.2" y2="66.57" xlink:href="#linear-gradient"/><linearGradient id="linear-gradient-10" x1="22.24" y1="62.15" x2="28.29" y2="62.15" xlink:href="#linear-gradient"/><linearGradient id="linear-gradient-11" x1="0" y1="52.5" x2="105" y2="52.5" xlink:href="#linear-gradient"/></defs><path id="topRing1" class="cls-1" d="M52.55,27.8c12.74,0,22,4.55,29.54,10.38,0-10-16.8-15.8-29.54-15.8S22.41,28.14,22.41,38.59C30.32,32.83,39.81,27.8,52.55,27.8Z" transform="translate(0.04 0)"/><path id="bottomSnare" class="cls-2" d="M52.55,81.21c12.74,0,21.4-4.63,29.54-10.37,0,10-16.8,15.8-29.54,15.8S22.41,80.76,22.41,70.42C30.08,75.86,39.81,81.21,52.55,81.21Z" transform="translate(0.04 0)"/><path id="drumSurface" class="cls-3" d="M24.28,39.34a2.33,2.33,0,0,0,0,3.63,44.94,44.94,0,0,0,56,0,2.33,2.33,0,0,0,0-3.63,45,45,0,0,0-55.95,0Z" transform="translate(0.04 0)"/><path id="topRing2" class="cls-4" d="M52.25,54.38c12.75,0,21.81-5.07,30.11-10.09,0,2-.27,5-.27,5-5.68,4.59-20.8,9.55-29.84,9.31A52.77,52.77,0,0,1,22.41,48.9a45.16,45.16,0,0,1-.27-4.84C29.81,49.5,39.51,54.38,52.25,54.38Z" transform="translate(0.04 0)"/><g id="snareBody"><path id="middleLeftBody" class="cls-5" d="M41.34,59.57v4.17a2.32,2.32,0,0,1,1.56,2.18v5.31a2.3,2.3,0,0,1-1.56,2.17V78l-1.66-.35a46.34,46.34,0,0,0,11.69,1.64V74.42a2.33,2.33,0,0,1-1.42-2.14V67a2.32,2.32,0,0,1,1.4-2.12V60.6h.21l-.85,0h-.21a56.46,56.46,0,0,1-9.41-1.06Z" transform="translate(0.04 0)"/><path id="rightMiddleBody" class="cls-6" d="M65,59.1l0,4.36a2.31,2.31,0,0,1,1.44,2.14v5.31A2.31,2.31,0,0,1,65.18,73l0,4.4a52.5,52.5,0,0,0,9.75-4V68.71a2.32,2.32,0,0,1-1.33-2.09V61.31A2.32,2.32,0,0,1,75,59.22V55.61a51,51,0,0,1-10.31,3.57Z" transform="translate(0.04 0)"/><path id="middleRightBody" class="cls-7" d="M53.12,74.42v4.83A45.3,45.3,0,0,0,63.1,78v-5a2.31,2.31,0,0,1-1.22-2V65.6a2.32,2.32,0,0,1,1.22-2v-4l.58-.13A55.53,55.53,0,0,1,52.61,60.6h.51v4.23A2.32,2.32,0,0,1,54.56,67v5.31A2.3,2.3,0,0,1,53.12,74.42Z" transform="translate(0.04 0)"/><path id="rightBody" class="cls-8" d="M81.55,51.83a46.71,46.71,0,0,1-4.84,2.92h0v4.4a2.32,2.32,0,0,1,1.54,2.17v5.31a2.33,2.33,0,0,1-1.54,2.17v3.69A59.79,59.79,0,0,0,82.26,69V51.83Z" transform="translate(0.04 0)"/><path id="leftMiddleBody" class="cls-9" d="M39.55,73.29a2.33,2.33,0,0,1-1.28-2.06V65.92a2.32,2.32,0,0,1,1.28-2.06V59.19l.65.14a51.52,51.52,0,0,1-11.13-3.77l.44.21v3A2.33,2.33,0,0,1,31,61v5.31a2.3,2.3,0,0,1-1.49,2.15v5a46.21,46.21,0,0,0,10,4.16Z" transform="translate(0.04 0)"/><path id="leftBody" class="cls-10" d="M27.88,68.42a2.31,2.31,0,0,1-1.51-2.16V61a2.33,2.33,0,0,1,1.56-2.18L28,55l.34.16a45,45,0,0,1-5.69-3.35S22.44,55,22.31,59l-.07,9.66a64.12,64.12,0,0,0,5.62,3.82Z" transform="translate(0.04 0)"/></g><rect id="border" class="cls-11" x="2.5" y="2.5" width="100" height="100" rx="12"/></svg>