<svg xmlns="http://www.w3.org/2000/svg" xmlns:xlink="http://www.w3.org/1999/xlink" viewBox="0 0 105 105"><defs><style>.cls-1{fill:url(#linear-gradient);}.cls-2{fill:url(#linear-gradient-2);}.cls-3{fill:url(#linear-gradient-3);}.cls-4{fill:url(#linear-gradient-4);}.cls-5{fill:url(#linear-gradient-5);}.cls-6{fill:url(#linear-gradient-6);}.cls-7{fill:url(#linear-gradient-7);}.cls-8{fill:url(#linear-gradient-8);}.cls-9{fill:none;stroke-miterlimit:10;stroke-width:5px;stroke:url(#linear-gradient-9);}</style><linearGradient id="linear-gradient" x1="46.49" y1="38.14" x2="58.54" y2="38.14" gradientUnits="userSpaceOnUse"><stop offset="0" stop-color="#93278f"/><stop offset="1" stop-color="#d4145a"/></linearGradient><linearGradient id="linear-gradient-2" x1="38.04" y1="23.27" x2="66.98" y2="23.27" xlink:href="#linear-gradient"/><linearGradient id="linear-gradient-3" x1="44.45" y1="40.22" x2="60.35" y2="40.22" xlink:href="#linear-gradient"/><linearGradient id="linear-gradient-4" x1="50.81" y1="62.32" x2="54.05" y2="62.32" xlink:href="#linear-gradient"/><linearGradient id="linear-gradient-5" x1="50.81" y1="65.43" x2="54.05" y2="65.43" xlink:href="#linear-gradient"/><linearGradient id="linear-gradient-6" x1="45.35" y1="67.13" x2="59.67" y2="67.13" xlink:href="#linear-gradient"/><linearGradient id="linear-gradient-7" x1="47.73" y1="92.11" x2="57.11" y2="92.11" xlink:href="#linear-gradient"/><linearGradient id="linear-gradient-8" x1="50.81" y1="95.61" x2="54.05" y2="95.61" xlink:href="#linear-gradient"/><linearGradient id="linear-gradient-9" x1="0.03" y1="52.37" x2="105.03" y2="52.37" xlink:href="#linear-gradient"/></defs><title>Artboard 13</title><g id="Microphone_1" data-name="Microphone 1"><path class="cls-1" d="M46.49,37.48a14.31,14.31,0,0,0,12,0C53.52,37.52,49,37.5,46.49,37.48Z"/><path class="cls-2" d="M52.51,9.87a14.45,14.45,0,0,0-7.66,26.72c6.64.17,13.64,0,15.33,0A14.46,14.46,0,0,0,52.51,9.87ZM39.13,26.36V22.5a246,246,0,0,0,26.72,0,24.18,24.18,0,0,1,0,3.86C48.83,27.53,39.13,26.36,39.13,26.36Z"/><path class="cls-3" d="M44.45,37.48h15.9s-.61,4-.61,5.48H45.3S45.33,39.26,44.45,37.48Z"/><rect class="cls-4" x="50.81" y="61.69" width="3.24" height="1.26"/><rect class="cls-5" x="50.81" y="64.75" width="3.24" height="1.35"/><path class="cls-6" d="M45.35,44.16,47.8,90.1h9.66l2.21-45.94Zm7.18,33.5C50.08,77.89,50.2,75,50.2,75V59.26s.11-2.67,2.21-2.67a2.44,2.44,0,0,1,2.44,2.67V74.87A2.61,2.61,0,0,1,52.53,77.66Z"/><polygon class="cls-7" points="47.73 90.92 57.11 90.92 54.85 93.31 50.2 93.31 47.73 90.92"/><rect class="cls-8" x="50.81" y="93.3" width="3.24" height="4.61"/></g><g id="Layer_1" data-name="Layer 1"><rect class="cls-9" x="2.53" y="2.37" width="100" height="100" rx="12"/></g></svg>