<svg xmlns="http://www.w3.org/2000/svg" xmlns:xlink="http://www.w3.org/1999/xlink" viewBox="0 0 105 105"><defs><style>.cls-1{fill:url(#linear-gradient);}.cls-2{fill:url(#linear-gradient-2);}.cls-3{fill:url(#linear-gradient-3);}.cls-4{fill:none;stroke-miterlimit:10;stroke-width:5px;stroke:url(#linear-gradient-4);}</style><linearGradient id="linear-gradient" x1="17.25" y1="56.23" x2="87.58" y2="56.23" gradientUnits="userSpaceOnUse"><stop offset="0" stop-color="#29abe2"/><stop offset="1" stop-color="#93278f"/></linearGradient><linearGradient id="linear-gradient-2" x1="70.24" y1="29.25" x2="82.57" y2="29.25" xlink:href="#linear-gradient"/><linearGradient id="linear-gradient-3" x1="14.94" y1="56.23" x2="89.92" y2="56.23" xlink:href="#linear-gradient"/><linearGradient id="linear-gradient-4" x1="-0.04" y1="52.3" x2="104.96" y2="52.3" xlink:href="#linear-gradient"/></defs><title>Artboard 8</title><g id="Snare_Drum_2" data-name="Snare Drum 2"><path class="cls-1" d="M47,68.07C49.13,66,68.53,47.34,80.91,35.53A35.37,35.37,0,0,0,69.7,25.45l-27,38.49a2.13,2.13,0,0,1,.11.58,5,5,0,0,1-1.14,3.06c-1.3,1.69-3.19,2.42-4.23,1.62s-.81-2.81.49-4.5a4.89,4.89,0,0,1,2.71-1.88c2.25-3.6,15.86-25.42,24.71-39.48A35.4,35.4,0,1,0,83.47,39.66L48.6,69.73a4.77,4.77,0,0,1-1.3,3.18C45.9,74.52,44,75.13,43,74.28s-.65-2.86.75-4.47A4.53,4.53,0,0,1,47,68.07ZM25.07,60.24a1.44,1.44,0,0,1,1.48-1.38l7.58.28A1.43,1.43,0,0,1,34,62l-7.58-.28A1.43,1.43,0,0,1,25.07,60.24ZM52.76,72.43h0a1.42,1.42,0,0,1,1.9.64l3.09,6.27A1.42,1.42,0,1,1,55.2,80.6l-3.09-6.27A1.42,1.42,0,0,1,52.76,72.43Zm-10.31,5.2s0,0,0-.06a1.39,1.39,0,0,1,.9-.5h0a1.42,1.42,0,0,1,.46,0h.09a1.5,1.5,0,0,1,.34.16,1.19,1.19,0,0,1,.16.08h0s0,0,0,0l2.69,2.19L47.3,76a1.42,1.42,0,1,1,2.84.11l-.23,6.41a1.54,1.54,0,0,1,0,.3l0,.09a1.78,1.78,0,0,1-.23.43h0l0,0a1.41,1.41,0,0,1-2.14.06l-3.6-2.94-3.15,4.24a1.5,1.5,0,0,1-2.59-.49l-1.71-6-5.28,1.85a1.31,1.31,0,0,1-.27.06,1.38,1.38,0,0,1-1,0h0A1.43,1.43,0,0,1,29,78.34l2.17-6.09L27,70.08h0a.33.33,0,0,1-.1-.06,1.38,1.38,0,0,1-.36-.32h0a1.4,1.4,0,0,1-.14-1.52,1.36,1.36,0,0,1,.62-.61L31.67,64a1.43,1.43,0,1,1,1.72,2.28L30.31,68.6l3,1.56.1,0a1.45,1.45,0,0,1,.92,1.09,1.5,1.5,0,0,1-.12,1l0,0-1.52,4.25,4.08-1.43a1.45,1.45,0,0,1,.35-.07,1.43,1.43,0,0,1,1.6,1l1.36,4.78Z"/><path class="cls-2" d="M81.6,34.87l1-.94A37.82,37.82,0,0,0,71,23.64l-.72,1A36.23,36.23,0,0,1,81.6,34.87Z"/><path class="cls-3" d="M85.26,38.12l-1.05.9A36.06,36.06,0,1,1,52.43,20a35.72,35.72,0,0,1,13.39,2.59l.67-1.07A37.49,37.49,0,1,0,85.26,38.12Z"/></g><g id="Layer_1" data-name="Layer 1"><rect class="cls-4" x="2.46" y="2.3" width="100" height="100" rx="12"/></g></svg>