<svg xmlns="http://www.w3.org/2000/svg" xmlns:xlink="http://www.w3.org/1999/xlink" viewBox="0 0 105 105"><defs><style>.cls-1{fill:url(#linear-gradient);}.cls-2{fill:url(#linear-gradient-2);}.cls-3{fill:url(#linear-gradient-3);}.cls-4{fill:url(#linear-gradient-4);}.cls-5{fill:none;stroke-miterlimit:10;stroke-width:5px;stroke:url(#linear-gradient-5);}</style><linearGradient id="linear-gradient" x1="86.28" y1="78.36" x2="93.27" y2="78.36" gradientUnits="userSpaceOnUse"><stop offset="0" stop-color="#662d91"/><stop offset="1" stop-color="#d4145a"/></linearGradient><linearGradient id="linear-gradient-2" x1="39.47" y1="78.32" x2="32.49" y2="78.32" gradientTransform="matrix(-1, 0, 0, 1, 50.26, 0)" xlink:href="#linear-gradient"/><linearGradient id="linear-gradient-3" x1="13.04" y1="50.93" x2="90.92" y2="50.93" xlink:href="#linear-gradient"/><linearGradient id="linear-gradient-4" x1="20.09" y1="50.49" x2="83.96" y2="50.49" xlink:href="#linear-gradient"/><linearGradient id="linear-gradient-5" x1="-0.04" y1="52.3" x2="104.96" y2="52.3" gradientUnits="userSpaceOnUse"><stop offset="0" stop-color="#9e005d"/><stop offset="1" stop-color="#93278f"/></linearGradient></defs><title>Artboard 9</title><g id="Base_Drum" data-name="Base Drum"><path class="cls-1" d="M92.3,89.88h0L87.62,62.54c-.25,1.12-1.34,4.05-1.34,4.05l4.33,23.29a1,1,0,0,0-1,1v2.37a1,1,0,0,0,1,1H92.3a1,1,0,0,0,1-1V90.85A1,1,0,0,0,92.3,89.88Z"/><path class="cls-2" d="M11.75,89.84h0L16.43,62.5c.25,1.12,1.34,4,1.34,4l-4.33,23.3a1,1,0,0,1,1,1v2.38a1,1,0,0,1-1,1H11.75a1,1,0,0,1-1-1V90.8A1,1,0,0,1,11.75,89.84Z"/><path class="cls-3" d="M89.46,45.69H88.25a36.33,36.33,0,0,0-7.42-17.3l.82-.82a1.47,1.47,0,0,0,0-2.06l-5.36-5.36a1.47,1.47,0,0,0-2.06,0l-1,1a36.49,36.49,0,0,0-43,.58l-1.11-1.19a1.46,1.46,0,0,0-2.06-.06l-5.53,5.17a1.46,1.46,0,0,0-.07,2.06l1.12,1.21a1.73,1.73,0,0,0,.28.19,36.35,36.35,0,0,0-7,17.38H14.5A1.46,1.46,0,0,0,13,47.94v7.58A1.47,1.47,0,0,0,14.5,57h1.63a36.29,36.29,0,0,0,6.58,15.57s0,0,0,0l-1.16,1.17a1.45,1.45,0,0,0,0,2.06l5.36,5.36a1.47,1.47,0,0,0,2.06,0L30.07,80A36.48,36.48,0,0,0,75.58,78.9l.91.84a1.46,1.46,0,0,0,2.06-.1l5.11-5.59A1.47,1.47,0,0,0,83.57,72l-1-.91a36.23,36.23,0,0,0,5.68-14.9h1.21a1.47,1.47,0,0,0,1.46-1.46V47.14A1.46,1.46,0,0,0,89.46,45.69ZM57.22,84v.35a2.07,2.07,0,0,1-2.07,2.06H53.23v.32H50.89v-.32H49a2.07,2.07,0,0,1-2.06-2.06V84a33.57,33.57,0,1,1,10.31,0Z"/><path class="cls-4" d="M52,18.74a31.93,31.93,0,0,0-4.83,63.5v-6a2,2,0,0,1,2-2H51V57.72h-.56a3,3,0,0,1-3-3V50.55a3,3,0,0,1,3-3h3.19a3,3,0,0,1,3,3v4.17a3,3,0,0,1-3,3h-.4V74.23H55a2,2,0,0,1,2,2v6a31.93,31.93,0,0,0-5-63.47Z"/></g><g id="Layer_1" data-name="Layer 1"><rect class="cls-5" x="2.46" y="2.3" width="100" height="100" rx="12"/></g></svg>