<svg xmlns="http://www.w3.org/2000/svg" xmlns:xlink="http://www.w3.org/1999/xlink" viewBox="0 0 105 105"><defs><style>.cls-1,.cls-2{fill:none;stroke-miterlimit:10;}.cls-1{stroke-width:4px;stroke:url(#linear-gradient);}.cls-2{stroke-width:5px;stroke:url(#linear-gradient-2);}</style><linearGradient id="linear-gradient" x1="11.56" y1="52.5" x2="93.02" y2="52.5" gradientUnits="userSpaceOnUse"><stop offset="0" stop-color="#29abe2"/><stop offset="1" stop-color="#902b92"/><stop offset="1" stop-color="#93278f"/></linearGradient><linearGradient id="linear-gradient-2" x1="-0.21" y1="52.49" x2="104.79" y2="52.49" gradientUnits="userSpaceOnUse"><stop offset="0" stop-color="#29abe2"/><stop offset="1" stop-color="#ed1e79"/></linearGradient></defs><title>Artboard 1</title><g id="Tamborine"><path class="cls-1" d="M81.92,44h-.1a30.76,30.76,0,0,0-2-4.85A9.1,9.1,0,1,0,67,26.23,30.74,30.74,0,0,0,62,24.17c0-.23,0-.47,0-.71a9.1,9.1,0,0,0-18.2,0c0,.24,0,.48,0,.71a29.75,29.75,0,0,0-5,2.07A9.1,9.1,0,1,0,26.12,39a29.43,29.43,0,0,0-1.58,3.53,8.85,8.85,0,0,0-1.87-.2,9.11,9.11,0,1,0,0,18.21c.31,0,.62,0,.92-.05a30.1,30.1,0,0,0,2.12,5.79A9.1,9.1,0,1,0,38.2,79.5,30.06,30.06,0,0,0,43.86,82,9.09,9.09,0,0,0,62,82a30.51,30.51,0,0,0,4.5-1.83,9.09,9.09,0,0,0,13-12.65,30,30,0,0,0,2.25-5.31h.1a9.1,9.1,0,0,0,0-18.2ZM73.49,23.6A9,9,0,0,1,79.74,39,30.33,30.33,0,0,0,67.09,26.3,8.92,8.92,0,0,1,73.49,23.6Zm5.23,16.23a8.86,8.86,0,0,1-5.23,1.7,8.95,8.95,0,0,1-7.25-14.22A29.07,29.07,0,0,1,78.72,39.83ZM44,23.46a9,9,0,0,1,17.92,0c0,.23,0,.45,0,.67a30.43,30.43,0,0,0-17.86,0C44,23.91,44,23.69,44,23.46Zm17.7,2a9,9,0,0,1-17.48,0,29.17,29.17,0,0,1,17.48,0ZM22.8,31.89a9,9,0,0,1,16-5.58A30.41,30.41,0,0,0,26.18,38.89,9,9,0,0,1,22.8,31.89Zm16.71-4.51A9,9,0,0,1,27.26,39.63,29.07,29.07,0,0,1,39.51,27.38Zm-16.84,33a9,9,0,1,1,0-17.93,9.14,9.14,0,0,1,1.82.19,30.49,30.49,0,0,0-.93,17.69A8.69,8.69,0,0,1,22.67,60.42ZM24,53.06a29,29,0,0,1,1.78-10,9,9,0,0,1-.91,17.1A29,29,0,0,1,24,53.06Zm7.67,29.11a9,9,0,0,1-5.86-15.74,30.45,30.45,0,0,0,12.3,13A8.91,8.91,0,0,1,31.63,82.17Zm-4.8-16.52a8.86,8.86,0,0,1,4.8-1.41,9,9,0,0,1,7.28,14.18A29.12,29.12,0,0,1,26.83,65.65ZM52.94,90.5A9,9,0,0,1,44,82a30.49,30.49,0,0,0,17.88,0A9,9,0,0,1,52.94,90.5ZM44,80.64a9,9,0,0,1,17.84,0,29.12,29.12,0,0,1-17.84,0Zm21.73-1.58A9,9,0,0,1,78.54,66.65,29.16,29.16,0,0,1,65.75,79.06Zm16-5.51a9,9,0,0,1-15.13,6.5A30.46,30.46,0,0,0,79.5,67.59,9,9,0,0,1,81.78,73.55Zm-3.18-7a9.09,9.09,0,0,0-13,12.59A28.84,28.84,0,0,1,62,80.59a9.1,9.1,0,0,0-18.1,0A28.4,28.4,0,0,1,39,78.49a9.09,9.09,0,0,0-12.26-13,28.76,28.76,0,0,1-1.91-5.24,9.09,9.09,0,0,0,.93-17.37,27.91,27.91,0,0,1,1.41-3.16A9,9,0,0,0,31.77,41a9.09,9.09,0,0,0,9.1-9.1,9,9,0,0,0-1.24-4.57,27.9,27.9,0,0,1,4.44-1.85,9.09,9.09,0,0,0,17.74,0,29,29,0,0,1,4.3,1.78A9.09,9.09,0,0,0,78.79,40a29.28,29.28,0,0,1,1.71,4.12,9.09,9.09,0,0,0,0,18A29.21,29.21,0,0,1,78.6,66.53Zm1.94-22.32a29.07,29.07,0,0,1,0,17.7,9,9,0,0,1,0-17.7ZM81.92,62h-.06a30.41,30.41,0,0,0,0-17.92h.06a9,9,0,0,1,0,17.92Z"/></g><g id="Layer_1" data-name="Layer 1"><rect class="cls-2" x="2.29" y="2.49" width="100" height="100" rx="12"/></g></svg>