<svg id="Shakers" xmlns="http://www.w3.org/2000/svg" xmlns:xlink="http://www.w3.org/1999/xlink" viewBox="0 0 105 105"><defs><style>.cls-1{fill:#d83673;}.cls-2{fill:none;stroke-miterlimit:10;stroke-width:5px;stroke:url(#linear-gradient);}</style><linearGradient id="linear-gradient" y1="52.5" x2="105" y2="52.5" gradientUnits="userSpaceOnUse"><stop offset="0" stop-color="#d2147e"/><stop offset="1" stop-color="#df4f67"/></linearGradient></defs><g id="topL"><path id="top_l" class="cls-1" d="M42.4,19.51a17.59,17.59,0,0,1,10.54,4.81c-1.31-5.8-5.29-10.15-10.54-10.68-5.87-.58-11.48,3.78-14,10.29A18.56,18.56,0,0,1,42.4,19.51Z" transform="translate(0.05)"/></g><g id="boarder"><rect id="Boarder-2" data-name="Boarder" class="cls-2" x="2.5" y="2.5" width="100" height="100" rx="12"/></g><g id="bottomRight"><path id="bottom_middle_r" class="cls-1" d="M67.22,47.63a19.65,19.65,0,0,0-17.37.45,18.55,18.55,0,0,0-.65,2.62,19.58,19.58,0,0,1,17.08-.29,15.16,15.16,0,0,1,6.77,6.35c.49-.56,1-1.14,1.42-1.75A15,15,0,0,0,67.22,47.63Z" transform="translate(0.05)"/></g><g id="topRight"><path id="top_middle_r" class="cls-1" d="M69.27,42.1A19.46,19.46,0,0,0,53,42c-.25.33-.49.66-.72,1a23,23,0,0,0-1.41,2.48,19.68,19.68,0,0,1,17.67-.59A15,15,0,0,1,76,52.66a21.43,21.43,0,0,0,1-2A14.84,14.84,0,0,0,69.27,42.1Z" transform="translate(0.05)"/></g><g id="topR"><path id="top_r" class="cls-1" d="M73.26,34.3c-5.14-2.51-12.28-.38-17.55,4.77a19.33,19.33,0,0,1,14.89.63,15,15,0,0,1,7.53,8C79.56,41.89,77.85,36.54,73.26,34.3Z" transform="translate(0.05)"/></g><g id="handles"><path id="Handles-2" data-name="Handles" class="cls-1" d="M65.63,52.9A19.56,19.56,0,0,0,48.9,53a11,11,0,0,0,2.49,7.51L40.54,78.11a1.55,1.55,0,0,0,.05-.23l2.71-32.3a16.31,16.31,0,0,0,9-9.49,18,18,0,0,0-7.94-2.75A18.45,18.45,0,0,0,29,39.06a12.69,12.69,0,0,0,5.85,6.16L32.41,77.73s-.07,2.12,3.93,2.58a4.13,4.13,0,0,0,3.3-.73l-5.7,9.23s-1.07,1.92,2.36,3.75,5-.72,5-.72l17.57-28c4.26,0,9-2.05,12.8-5.71A15.39,15.39,0,0,0,65.63,52.9ZM35.86,75.54a.71.71,0,0,1-.79.59.68.68,0,0,1-.7-.68l2.08-26.57a.73.73,0,0,1,.8-.6.68.68,0,0,1,.69.69ZM53,65.36,37.55,88.42a.81.81,0,0,1-1,.24.59.59,0,0,1-.27-.88L51.71,64.72a.83.83,0,0,1,1-.24A.6.6,0,0,1,53,65.36Z" transform="translate(0.05)"/></g><g id="bottomLeft"><path id="bottom_middle_l" class="cls-1" d="M43.87,30.82A17.72,17.72,0,0,1,53,34.4a17.73,17.73,0,0,0,.52-2.09,17.58,17.58,0,0,0-10-4.36,18.42,18.42,0,0,0-15.8,6.24,17.06,17.06,0,0,0,.59,2.63A18.4,18.4,0,0,1,43.87,30.82Z" transform="translate(0.05)"/></g><g id="topLeft"><path id="top_middle_l" class="cls-1" d="M43.48,25a17.55,17.55,0,0,1,10.34,4.65,20.55,20.55,0,0,0,0-2.22,17.44,17.44,0,0,0-11-5.26,18.49,18.49,0,0,0-15,5.38c-.07.38-.15.77-.2,1.16a20.09,20.09,0,0,0-.17,2.77A18.35,18.35,0,0,1,43.48,25Z" transform="translate(0.05)"/></g></svg>