<?xml version="1.0" encoding="utf-8"?>
<!-- Generator: Adobe Illustrator 23.1.1, SVG Export Plug-In . SVG Version: 6.00 Build 0)  -->
<svg version="1.1" id="background" xmlns="http://www.w3.org/2000/svg" xmlns:xlink="http://www.w3.org/1999/xlink" x="0px" y="0px"
	 viewBox="0 0 180 180" style="enable-background:new 0 0 180 180;" xml:space="preserve">
<style type="text/css">
	.st0{fill:#B3B3B3;}
	.st1{fill:#CCCCCC;stroke:#B3B3B3;stroke-width:8;stroke-linecap:round;stroke-linejoin:round;stroke-miterlimit:10;}
	.st2{fill:none;stroke:#B3B3B3;stroke-width:2;stroke-linecap:round;stroke-miterlimit:10;}
</style>
<g>
	<path class="st0" d="M90,10c44.1,0,80,35.9,80,80s-35.9,80-80,80s-80-35.9-80-80S45.9,10,90,10 M90,0C40.3,0,0,40.3,0,90
		s40.3,90,90,90s90-40.3,90-90S139.7,0,90,0L90,0z"/>
</g>
<polygon class="st1" points="51,147 67,44 107,44 122,147 "/>
<rect x="68" y="123" class="st0" width="36" height="11"/>
<g>
	<path class="st0" d="M85.2,125.3c4.6-4.7,9.1-9.4,13.6-14.1l13.5-14.3c4.5-4.8,8.9-9.6,13.3-14.4l6.6-7.2c2.2-2.4,4.4-4.8,5.8-8
		c0.9-2.2,3.5-3.1,5.6-2.2c2.2,0.9,3.1,3.5,2.2,5.6c-0.4,0.9-1.1,1.7-2,2.1c-3.1,1.6-5.4,3.9-7.7,6.2l-6.9,7
		c-4.6,4.7-9.1,9.4-13.7,14.1l-13.5,14.2c-4.5,4.8-9,9.5-13.4,14.4c-0.9,1-2.5,1.1-3.5,0.2C84.3,128,84.2,126.4,85.2,125.3
		C85.1,125.3,85.2,125.3,85.2,125.3z"/>
</g>
<line class="st2" x1="87" y1="68" x2="87" y2="127"/>
<line class="st2" x1="81.5" y1="77.5" x2="92.5" y2="77.5"/>
<line class="st2" x1="78.5" y1="88" x2="95.5" y2="88"/>
<line class="st2" x1="75.5" y1="98.5" x2="98.5" y2="98.5"/>
<line class="st2" x1="72" y1="109" x2="102" y2="109"/>
</svg>
